<svg xmlns="http://www.w3.org/2000/svg" xmlns:xlink="http://www.w3.org/1999/xlink" viewBox="0 0 218.51 244.35"><defs><style>.cls-1{fill:url(#Dégradé_sans_nom_2);}.cls-2{fill:url(#Dégradé_sans_nom_71);}.cls-3,.cls-4,.cls-5,.cls-6,.cls-7{fill:none;}.cls-3,.cls-4,.cls-5{stroke-linecap:round;}.cls-3,.cls-5,.cls-6,.cls-7{stroke-miterlimit:10;}.cls-3,.cls-4,.cls-6,.cls-7{stroke-width:20px;}.cls-3{stroke:url(#Dégradé_sans_nom_62);}.cls-4{stroke-linejoin:round;stroke:url(#Dégradé_sans_nom_62-2);}.cls-5{stroke-width:16px;stroke:url(#Dégradé_sans_nom_2-2);}.cls-6{stroke:url(#Dégradé_sans_nom_2-3);}.cls-7{stroke:url(#Dégradé_sans_nom_2-4);}.cls-8{fill:url(#Dégradé_sans_nom_62-3);}.cls-9{fill:url(#Dégradé_sans_nom_62-4);}.cls-10{fill:url(#Dégradé_sans_nom_62-5);}.cls-11{fill:#f4f4f4;}</style><linearGradient id="Dégradé_sans_nom_2" x1="109.13" y1="6" x2="109.13" y2="107.9" gradientUnits="userSpaceOnUse"><stop offset="0" stop-color="#00a096"/><stop offset="1" stop-color="#185a4c"/></linearGradient><linearGradient id="Dégradé_sans_nom_71" x1="109.13" y1="14" x2="109.13" y2="99.9" gradientUnits="userSpaceOnUse"><stop offset="0" stop-color="#185a4c"/><stop offset="1" stop-color="#00a096"/></linearGradient><linearGradient id="Dégradé_sans_nom_62" x1="99.13" y1="109.01" x2="195.78" y2="109.01" gradientUnits="userSpaceOnUse"><stop offset="0" stop-color="#ffd550"/><stop offset="1" stop-color="#ffb900"/></linearGradient><linearGradient id="Dégradé_sans_nom_62-2" x1="22.49" y1="109.01" x2="119.13" y2="109.01" xlink:href="#Dégradé_sans_nom_62"/><linearGradient id="Dégradé_sans_nom_2-2" x1="6.6" y1="128" x2="211.67" y2="128" xlink:href="#Dégradé_sans_nom_2"/><linearGradient id="Dégradé_sans_nom_2-3" x1="9.66" y1="195.31" x2="41.35" y2="195.31" xlink:href="#Dégradé_sans_nom_2"/><linearGradient id="Dégradé_sans_nom_2-4" x1="176.92" y1="195.31" x2="208.61" y2="195.31" xlink:href="#Dégradé_sans_nom_2"/><linearGradient id="Dégradé_sans_nom_62-3" x1="219.99" y1="217.13" x2="190.9" y2="217.13" xlink:href="#Dégradé_sans_nom_62"/><linearGradient id="Dégradé_sans_nom_62-4" x1="27.37" y1="216.98" x2="-1.56" y2="216.98" xlink:href="#Dégradé_sans_nom_62"/><linearGradient id="Dégradé_sans_nom_62-5" x1="104.16" y1="36.02" x2="114.11" y2="36.02" xlink:href="#Dégradé_sans_nom_62"/></defs><g id="Calque_2" data-name="Calque 2"><g id="Calque_2-2" data-name="Calque 2"><circle class="cls-1" cx="109.13" cy="56.95" r="50.95"/><circle class="cls-2" cx="109.13" cy="56.95" r="42.95"/><line class="cls-3" x1="109.13" y1="36.02" x2="185.78" y2="182"/><line class="cls-4" x1="109.13" y1="36.02" x2="32.49" y2="182"/><path class="cls-5" d="M203.67,102A111.93,111.93,0,0,1,14.6,102"/><line class="cls-6" x1="32.49" y1="182" x2="18.52" y2="208.62"/><line class="cls-7" x1="185.78" y1="182" x2="199.75" y2="208.62"/><polygon class="cls-8" points="211.13 230.29 190.9 213.27 208.61 203.97 211.13 230.29"/><polygon class="cls-9" points="7.29 230 9.66 203.97 27.37 213.27 7.29 230"/><circle class="cls-10" cx="109.13" cy="36.02" r="4.98"/><path class="cls-11" d="M88.38,110a56.91,56.91,0,0,0,41.51,0l12.7,24.18a98.75,98.75,0,0,1-66.91,0L88.38,110m-2.69-7.8L67.28,137.26a104.59,104.59,0,0,0,83.71,0l-18.41-35.08a50.91,50.91,0,0,1-46.89,0Z"/><path class="cls-11" d="M109.13,6a51,51,0,0,1,39.31,83.37l20,38.1a104.12,104.12,0,0,0,28.47-29.76,8,8,0,0,1,13.51,8.58,120.18,120.18,0,0,1-34.49,35.45l18.7,35.61,14,26.62h0l2.52,26.33-20.23-17h0l-14-26.62-18.47-35.2a120.53,120.53,0,0,1-98.63,0l-18.47,35.2-14,26.62L7.29,230l2.37-26,14-26.62,18.69-35.61A120.27,120.27,0,0,1,7.85,106.29a8,8,0,0,1,13.51-8.58,104.12,104.12,0,0,0,28.47,29.76l20-38.1A51,51,0,0,1,109.13,6m0-6A56.95,56.95,0,0,0,62.74,90l-15,28.48a98.28,98.28,0,0,1-21.37-24A14,14,0,0,0,.94,99,13.89,13.89,0,0,0,2.78,109.5a125.74,125.74,0,0,0,31.79,34.12L18.33,174.56,4.57,200.77a8.12,8.12,0,0,0-1,3.77l-.27,3-.82,8.95-1.19,13L0,243.88l11.13-9.27,20.08-16.73,2.16-1.8v-1.33l13.29-25.31,15.91-30.31a126.66,126.66,0,0,0,93.13,0l15.91,30.31,14,26.62.55,1,.9.76,20.23,17,11.24,9.46-1.4-14.63-2.53-26.32-.11-1.18-.55-1-14-26.62L183.7,143.62a125.74,125.74,0,0,0,31.79-34.12,14,14,0,1,0-23.64-15,98.28,98.28,0,0,1-21.37,24L155.53,90a56.95,56.95,0,0,0-46.4-90Z"/></g></g></svg>