<svg xmlns="http://www.w3.org/2000/svg" xmlns:xlink="http://www.w3.org/1999/xlink" viewBox="0 0 236 236"><defs><style>.cls-1{fill:url(#Dégradé_sans_nom_2);}.cls-2{fill:url(#Dégradé_sans_nom_2-2);}.cls-3{fill:url(#Dégradé_sans_nom_2-3);}.cls-4{fill:url(#Dégradé_sans_nom_2-4);}.cls-5{fill:url(#Dégradé_sans_nom_2-5);}.cls-6{fill:url(#Dégradé_sans_nom_2-6);}.cls-7{fill:url(#Dégradé_sans_nom_2-7);}.cls-8{fill:url(#Dégradé_sans_nom_11);}.cls-9{fill:url(#Dégradé_sans_nom_2-8);}.cls-10{fill:url(#Dégradé_sans_nom_2-9);}.cls-11{fill:url(#Dégradé_sans_nom_2-10);}.cls-12,.cls-13{fill:none;stroke-linecap:round;stroke-linejoin:round;stroke-width:16px;}.cls-12{stroke:url(#Dégradé_sans_nom_62);}.cls-13{stroke:url(#Dégradé_sans_nom_62-2);}.cls-14{fill:#f4f4f4;}</style><linearGradient id="Dégradé_sans_nom_2" x1="118" y1="27.38" x2="118" y2="230" gradientUnits="userSpaceOnUse"><stop offset="0" stop-color="#00a096"/><stop offset="1" stop-color="#185a4c"/></linearGradient><linearGradient id="Dégradé_sans_nom_2-2" x1="118" y1="86" x2="118" y2="41.58" xlink:href="#Dégradé_sans_nom_2"/><linearGradient id="Dégradé_sans_nom_2-3" x1="50.24" y1="130.15" x2="50.24" y2="93.85" xlink:href="#Dégradé_sans_nom_2"/><linearGradient id="Dégradé_sans_nom_2-4" x1="118.24" y1="130.15" x2="118.24" y2="93.85" xlink:href="#Dégradé_sans_nom_2"/><linearGradient id="Dégradé_sans_nom_2-5" x1="186.24" y1="130.15" x2="186.24" y2="93.85" xlink:href="#Dégradé_sans_nom_2"/><linearGradient id="Dégradé_sans_nom_2-6" x1="50.24" y1="174.98" x2="50.24" y2="138.67" xlink:href="#Dégradé_sans_nom_2"/><linearGradient id="Dégradé_sans_nom_2-7" x1="118.24" y1="174.98" x2="118.24" y2="138.67" xlink:href="#Dégradé_sans_nom_2"/><linearGradient id="Dégradé_sans_nom_11" x1="186.24" y1="174.98" x2="186.24" y2="138.67" gradientUnits="userSpaceOnUse"><stop offset="0" stop-color="#ffd550"/><stop offset="1" stop-color="#ffb900"/></linearGradient><linearGradient id="Dégradé_sans_nom_2-8" x1="50.24" y1="219.41" x2="50.24" y2="183.1" xlink:href="#Dégradé_sans_nom_2"/><linearGradient id="Dégradé_sans_nom_2-9" x1="118.24" y1="219.41" x2="118.24" y2="183.1" xlink:href="#Dégradé_sans_nom_2"/><linearGradient id="Dégradé_sans_nom_2-10" x1="186.24" y1="219.41" x2="186.24" y2="183.1" xlink:href="#Dégradé_sans_nom_2"/><linearGradient id="Dégradé_sans_nom_62" x1="46" y1="30" x2="62" y2="30" xlink:href="#Dégradé_sans_nom_11"/><linearGradient id="Dégradé_sans_nom_62-2" x1="174" y1="30" x2="190" y2="30" xlink:href="#Dégradé_sans_nom_11"/></defs><g id="Calque_2" data-name="Calque 2"><g id="Calque_2-2" data-name="Calque 2"><rect class="cls-1" x="6" y="27.38" width="224" height="202.62" rx="11.92"/><rect class="cls-2" x="20.48" y="41.58" width="195.04" height="44.42" rx="7.81"/><rect class="cls-3" x="20.48" y="93.85" width="59.52" height="36.31" rx="7.81"/><rect class="cls-4" x="88.48" y="93.85" width="59.52" height="36.31" rx="7.81"/><rect class="cls-5" x="156.48" y="93.85" width="59.52" height="36.31" rx="7.81"/><rect class="cls-6" x="20.48" y="138.67" width="59.52" height="36.31" rx="7.81"/><rect class="cls-7" x="88.48" y="138.67" width="59.52" height="36.31" rx="7.81"/><rect class="cls-8" x="156.48" y="138.67" width="59.52" height="36.31" rx="7.81"/><rect class="cls-9" x="20.48" y="183.1" width="59.52" height="36.31" rx="7.81"/><rect class="cls-10" x="88.48" y="183.1" width="59.52" height="36.31" rx="7.81"/><rect class="cls-11" x="156.48" y="183.1" width="59.52" height="36.31" rx="7.81"/><line class="cls-12" x1="54" y1="14" x2="54" y2="46"/><line class="cls-13" x1="182" y1="14" x2="182" y2="46"/><path class="cls-14" d="M182,6a8,8,0,0,1,8,8V27.38h28.08A11.93,11.93,0,0,1,230,39.31V218.07A11.93,11.93,0,0,1,218.08,230H17.92A11.93,11.93,0,0,1,6,218.07V39.31A11.93,11.93,0,0,1,17.92,27.38H46V14a8,8,0,0,1,16,0V27.38H174V14a8,8,0,0,1,8-8m0-6a14,14,0,0,0-14,14v7.38H68V14a14,14,0,0,0-28,0v7.38H17.92A17.94,17.94,0,0,0,0,39.31V218.07A17.94,17.94,0,0,0,17.92,236H218.08A17.94,17.94,0,0,0,236,218.07V39.31a17.94,17.94,0,0,0-17.92-17.93H196V14A14,14,0,0,0,182,0Z"/></g></g></svg>