<svg xmlns="http://www.w3.org/2000/svg" xmlns:xlink="http://www.w3.org/1999/xlink" viewBox="0 0 187.99 236.07"><defs><style>.cls-1{fill:url(#Dégradé_sans_nom_11);}.cls-2,.cls-3{opacity:0.2;}.cls-2{fill:url(#Dégradé_sans_nom_44);}.cls-3{fill:none;stroke-linecap:round;stroke-linejoin:round;stroke-width:8px;stroke:url(#Dégradé_sans_nom_45);}.cls-4{fill:url(#Dégradé_sans_nom_2);}.cls-5{fill:url(#Dégradé_sans_nom_13);}.cls-6{fill:url(#Dégradé_sans_nom_2-2);}.cls-7{fill:#f4f4f4;}</style><linearGradient id="Dégradé_sans_nom_11" x1="94" y1="5.99" x2="94" y2="270.48" gradientUnits="userSpaceOnUse"><stop offset="0" stop-color="#ffd550"/><stop offset="1" stop-color="#ffb900"/></linearGradient><linearGradient id="Dégradé_sans_nom_44" x1="53.04" y1="134.95" x2="156.23" y2="31.77" gradientUnits="userSpaceOnUse"><stop offset="0" stop-color="#fff"/><stop offset="1" stop-color="#fff" stop-opacity="0"/></linearGradient><linearGradient id="Dégradé_sans_nom_45" x1="127.85" y1="22.29" x2="127.85" y2="97.99" gradientUnits="userSpaceOnUse"><stop offset="0" stop-color="#fff" stop-opacity="0"/><stop offset="1" stop-color="#fff"/></linearGradient><linearGradient id="Dégradé_sans_nom_2" x1="-1010" y1="1498.7" x2="-1010" y2="1538.22" gradientTransform="translate(1104 -1294.93)" gradientUnits="userSpaceOnUse"><stop offset="0" stop-color="#00a096"/><stop offset="1" stop-color="#185a4c"/></linearGradient><linearGradient id="Dégradé_sans_nom_13" x1="-1010" y1="1507.32" x2="-1010" y2="1520.94" gradientTransform="translate(1104 -1294.93)" gradientUnits="userSpaceOnUse"><stop offset="0" stop-color="#185a4c"/><stop offset="1" stop-color="#00a096"/></linearGradient><linearGradient id="Dégradé_sans_nom_2-2" x1="-1010" y1="1481.32" x2="-1010" y2="1514.03" gradientTransform="translate(1104 -1299.32)" xlink:href="#Dégradé_sans_nom_2"/></defs><g id="Calque_2" data-name="Calque 2"><g id="Calque_2-2" data-name="Calque 2"><path class="cls-1" d="M156.23,31.77A88,88,0,0,0,31.77,156.22C45.38,169.82,50,182,50,182h88s4.62-12.17,18.23-25.77A88,88,0,0,0,156.23,31.77Z"/><circle class="cls-2" cx="104.63" cy="83.36" r="72.96"/><path class="cls-3" d="M94,26.29A67.7,67.7,0,0,1,161.7,94"/><path class="cls-4" d="M76.55,203.76h34.9a11.77,11.77,0,0,1,11.77,11.77v14.53a0,0,0,0,1,0,0H64.78a0,0,0,0,1,0,0V215.54A11.77,11.77,0,0,1,76.55,203.76Z" transform="translate(188 433.83) rotate(180)"/><rect class="cls-5" x="74.26" y="212.38" width="39.49" height="9.06" rx="4.53" transform="translate(188 433.83) rotate(-180)"/><path class="cls-6" d="M61.77,182h64.46A11.77,11.77,0,0,1,138,193.76v10a0,0,0,0,1,0,0H50a0,0,0,0,1,0,0v-10A11.77,11.77,0,0,1,61.77,182Z" transform="translate(188 385.76) rotate(180)"/><path class="cls-7" d="M94,6A87.72,87.72,0,0,1,153.5,29.18c.93.83,1.83,1.7,2.73,2.59s1.75,1.8,2.58,2.72a88,88,0,0,1-2.58,121.73C142.62,169.82,138,182,138,182h0v10a11.77,11.77,0,0,1-11.77,11.77h-3v14.53a11.77,11.77,0,0,1-11.77,11.78H76.55a11.77,11.77,0,0,1-11.77-11.78V203.76h-3A11.77,11.77,0,0,1,50,192V182h0s-4.62-12.17-18.23-25.77A88,88,0,0,1,94,6m0-6A94,94,0,0,0,27.53,160.46C37.88,170.81,42.67,180.3,44,183.22V192a17.8,17.8,0,0,0,14.78,17.52v8.78a17.8,17.8,0,0,0,17.77,17.78h34.9a17.8,17.8,0,0,0,17.77-17.78v-8.78A17.8,17.8,0,0,0,144,192v-8.77c1.32-2.91,6.11-12.4,16.47-22.76a94,94,0,0,0,2.78-130c-.9-1-1.83-2-2.78-2.93s-1.93-1.88-2.93-2.78A93.69,93.69,0,0,0,94,0Z"/></g></g></svg>