<svg xmlns="http://www.w3.org/2000/svg" xmlns:xlink="http://www.w3.org/1999/xlink" viewBox="0 0 236 186.2"><defs><style>.cls-1{fill:url(#Dégradé_sans_nom_8);}.cls-2{fill:#fff;}.cls-3{fill:url(#Dégradé_sans_nom_2);}.cls-4{fill:url(#Dégradé_sans_nom_8-2);}.cls-5{fill:url(#Dégradé_sans_nom_8-3);}.cls-6{fill:#f4f4f4;}</style><linearGradient id="Dégradé_sans_nom_8" x1="6" y1="84.86" x2="193.77" y2="84.86" gradientUnits="userSpaceOnUse"><stop offset="0" stop-color="#ffb900"/><stop offset="1" stop-color="#ffd550"/></linearGradient><linearGradient id="Dégradé_sans_nom_2" x1="103.45" y1="118.57" x2="230" y2="118.57" gradientUnits="userSpaceOnUse"><stop offset="0" stop-color="#00a096"/><stop offset="1" stop-color="#185a4c"/></linearGradient><linearGradient id="Dégradé_sans_nom_8-2" x1="130.68" y1="102.2" x2="202.77" y2="102.2" xlink:href="#Dégradé_sans_nom_8"/><linearGradient id="Dégradé_sans_nom_8-3" x1="130.68" y1="115.72" x2="188.3" y2="115.72" xlink:href="#Dégradé_sans_nom_8"/></defs><g id="Calque_2" data-name="Calque 2"><g id="Calque_2-2" data-name="Calque 2"><path class="cls-1" d="M165.45,6H34.31A28.32,28.32,0,0,0,6,34.31v72.57a28.32,28.32,0,0,0,28.31,28.31h12.1v28.52l28.52-28.52h90.52a28.32,28.32,0,0,0,28.32-28.31V34.31A28.32,28.32,0,0,0,165.45,6Z"/><path class="cls-2" d="M93.57,80.91c0-20.25,17.71-10.56,17.71-25.53,0-5.67-5-10-11.35-10C92.59,45.4,87.7,51,88.68,58H76.06c-1.17-14.09,9.29-25,23.87-25,13.5,0,23.87,9.78,23.87,22.39,0,20.25-17.41,15.17-17.41,24.65v5.28H93.57ZM92.3,100.18a8,8,0,1,1,8,8A8.07,8.07,0,0,1,92.3,100.18Z"/><path class="cls-3" d="M201.69,65.42H131.76a28.32,28.32,0,0,0-28.31,28.32v30.44a28.31,28.31,0,0,0,28.31,28.31h51.78l19.23,19.23V152.47A28.32,28.32,0,0,0,230,124.18V93.74A28.32,28.32,0,0,0,201.69,65.42Z"/><rect class="cls-4" x="130.68" y="98.62" width="72.09" height="7.15" rx="0.61"/><rect class="cls-5" x="130.68" y="112.15" width="57.62" height="7.15" rx="0.61"/><path class="cls-6" d="M165.45,6a28.32,28.32,0,0,1,28.32,28.31V65.42h7.92A28.32,28.32,0,0,1,230,93.74v30.44a28.32,28.32,0,0,1-27.23,28.29v19.25l-19.23-19.23H131.76a28.32,28.32,0,0,1-26.09-17.3H74.93L46.41,163.71V135.19H34.31A28.32,28.32,0,0,1,6,106.88V34.31A28.32,28.32,0,0,1,34.31,6H165.45m0-6H34.31A34.35,34.35,0,0,0,0,34.31v72.57a34.35,34.35,0,0,0,34.31,34.31h6.1v37L50.65,168l26.76-26.76H102a34.25,34.25,0,0,0,29.81,17.3h49.3L198.52,176l10.25,10.24V157.76A34.18,34.18,0,0,0,236,124.18V93.74a34.36,34.36,0,0,0-34.31-34.32h-1.92V34.31A34.35,34.35,0,0,0,165.45,0Z"/></g></g></svg>