<svg xmlns="http://www.w3.org/2000/svg" xmlns:xlink="http://www.w3.org/1999/xlink" viewBox="0 0 215.47 236"><defs><style>.cls-1{fill:url(#Dégradé_sans_nom_13);}.cls-2{fill:url(#Dégradé_sans_nom_471);}.cls-3{fill:url(#Dégradé_sans_nom_11);}.cls-10,.cls-11,.cls-12,.cls-4,.cls-5,.cls-6,.cls-7,.cls-8,.cls-9{fill:none;stroke-linecap:round;stroke-linejoin:round;stroke-width:7px;}.cls-4{stroke:url(#Dégradé_sans_nom_2);}.cls-5{stroke:url(#Dégradé_sans_nom_2-2);}.cls-6{stroke:url(#Dégradé_sans_nom_2-3);}.cls-7{stroke:url(#Dégradé_sans_nom_2-4);}.cls-8{stroke:url(#Dégradé_sans_nom_2-5);}.cls-9{stroke:url(#Dégradé_sans_nom_2-6);}.cls-10{stroke:url(#Dégradé_sans_nom_2-7);}.cls-11{stroke:url(#Dégradé_sans_nom_2-8);}.cls-12{stroke:url(#Dégradé_sans_nom_2-9);}.cls-13{fill:url(#Dégradé_sans_nom_472);}.cls-14{fill:url(#Dégradé_sans_nom_11-2);}.cls-15{fill:url(#Dégradé_sans_nom_471-2);}.cls-16{fill:#f4f4f4;}</style><linearGradient id="Dégradé_sans_nom_13" x1="107.73" y1="230" x2="107.73" y2="26.53" gradientUnits="userSpaceOnUse"><stop offset="0" stop-color="#185a4c"/><stop offset="1" stop-color="#00a096"/></linearGradient><linearGradient id="Dégradé_sans_nom_471" x1="107.73" y1="223.62" x2="107.73" y2="32.91" gradientUnits="userSpaceOnUse"><stop offset="0" stop-color="#00a096"/><stop offset="1" stop-color="#185a4c"/></linearGradient><linearGradient id="Dégradé_sans_nom_11" x1="578.72" y1="191.24" x2="578.72" y2="0.53" gradientTransform="translate(-379.16 479.56) rotate(-45)" gradientUnits="userSpaceOnUse"><stop offset="0" stop-color="#ffd550"/><stop offset="1" stop-color="#ffb900"/></linearGradient><linearGradient id="Dégradé_sans_nom_2" x1="107.73" y1="68.3" x2="107.73" y2="42.6" xlink:href="#Dégradé_sans_nom_471"/><linearGradient id="Dégradé_sans_nom_2-2" x1="-212.28" y1="434.11" x2="-212.28" y2="408.41" gradientTransform="translate(607.2 -70.99) rotate(45)" xlink:href="#Dégradé_sans_nom_471"/><linearGradient id="Dégradé_sans_nom_2-3" x1="-179.9" y1="919.07" x2="-179.9" y2="893.36" gradientTransform="translate(1086.76 308.17) rotate(90)" xlink:href="#Dégradé_sans_nom_471"/><linearGradient id="Dégradé_sans_nom_2-4" x1="185.91" y1="1239.08" x2="185.91" y2="1213.38" gradientTransform="translate(1157.76 915.37) rotate(135)" xlink:href="#Dégradé_sans_nom_471"/><linearGradient id="Dégradé_sans_nom_2-5" x1="670.86" y1="1206.7" x2="670.86" y2="1181" gradientTransform="translate(778.6 1394.93) rotate(180)" xlink:href="#Dégradé_sans_nom_471"/><linearGradient id="Dégradé_sans_nom_2-6" x1="990.88" y1="840.89" x2="990.88" y2="815.19" gradientTransform="translate(171.39 1465.92) rotate(-135)" xlink:href="#Dégradé_sans_nom_471"/><linearGradient id="Dégradé_sans_nom_2-7" x1="958.5" y1="355.94" x2="958.5" y2="330.23" gradientTransform="translate(-308.17 1086.76) rotate(-90)" xlink:href="#Dégradé_sans_nom_471"/><linearGradient id="Dégradé_sans_nom_2-8" x1="592.69" y1="35.92" x2="592.69" y2="10.22" gradientTransform="translate(-379.16 479.56) rotate(-45)" xlink:href="#Dégradé_sans_nom_471"/><linearGradient id="Dégradé_sans_nom_2-9" x1="22.07" y1="128.27" x2="193.4" y2="128.27" xlink:href="#Dégradé_sans_nom_471"/><linearGradient id="Dégradé_sans_nom_472" x1="175.56" y1="73.82" x2="175.56" y2="6" gradientUnits="userSpaceOnUse"><stop offset="0" stop-color="#ffb900"/><stop offset="1" stop-color="#ffd550"/></linearGradient><linearGradient id="Dégradé_sans_nom_11-2" x1="175.56" y1="68.41" x2="175.56" y2="11.41" gradientTransform="matrix(1, 0, 0, 1, 0, 0)" xlink:href="#Dégradé_sans_nom_11"/><linearGradient id="Dégradé_sans_nom_471-2" x1="170.93" y1="39.91" x2="180.18" y2="39.91" xlink:href="#Dégradé_sans_nom_471"/></defs><g id="Calque_2" data-name="Calque 2"><g id="Calque_2-2" data-name="Calque 2"><circle class="cls-1" cx="107.73" cy="128.27" r="101.73"/><circle class="cls-2" cx="107.73" cy="128.27" r="95.35"/><path class="cls-3" d="M175.16,195.69a95.35,95.35,0,0,1-135.8-1C3.7,158.06,3.52,99.09,39,62.22a95.06,95.06,0,0,1,68.77-29.31v95.36Z"/><line class="cls-4" x1="107.73" y1="46.1" x2="107.73" y2="64.8"/><line class="cls-5" x1="165.83" y1="70.17" x2="152.61" y2="83.39"/><line class="cls-6" x1="189.9" y1="128.27" x2="171.2" y2="128.27"/><line class="cls-7" x1="165.83" y1="186.37" x2="152.61" y2="173.14"/><line class="cls-8" x1="107.73" y1="210.43" x2="107.73" y2="191.73"/><line class="cls-9" x1="49.63" y1="186.37" x2="62.86" y2="173.14"/><line class="cls-10" x1="25.57" y1="128.27" x2="44.27" y2="128.27"/><line class="cls-11" x1="49.63" y1="70.17" x2="62.86" y2="83.39"/><circle class="cls-12" cx="107.73" cy="128.27" r="82.17"/><circle class="cls-13" cx="175.56" cy="39.91" r="33.91"/><circle class="cls-14" cx="175.56" cy="39.91" r="28.5"/><path class="cls-15" d="M170.93,56.72a4.63,4.63,0,1,1,4.63,4.62A4.66,4.66,0,0,1,170.93,56.72Zm.51-38.24h8.18l-1,28.09h-6.15Z"/><path class="cls-16" d="M175.56,6a33.91,33.91,0,0,1,15.59,64,101.57,101.57,0,1,1-48.71-37.41A33.92,33.92,0,0,1,175.56,6m0-6a39.92,39.92,0,0,0-37,25,107.75,107.75,0,1,0,61,46.83A39.91,39.91,0,0,0,175.56,0Z"/></g></g></svg>