<svg xmlns="http://www.w3.org/2000/svg" xmlns:xlink="http://www.w3.org/1999/xlink" viewBox="0 0 234.99 235.5"><defs><style>.cls-1,.cls-3{fill:none;stroke-linecap:round;stroke-linejoin:round;stroke-width:15px;}.cls-1{stroke:url(#Dégradé_sans_nom_15);}.cls-2{fill:url(#Dégradé_sans_nom_2);}.cls-3{stroke:url(#Dégradé_sans_nom_15-2);}.cls-4{fill:#f4f4f4;}.cls-5{fill:url(#Dégradé_sans_nom_451);}.cls-6{fill:url(#Dégradé_sans_nom_451-2);}.cls-7{fill:url(#Dégradé_sans_nom_451-3);}.cls-8{fill:url(#Dégradé_sans_nom_2-2);}.cls-9{fill:url(#Dégradé_sans_nom_11);}.cls-10{fill:url(#Dégradé_sans_nom_11-2);}.cls-11{fill:url(#Dégradé_sans_nom_11-3);}</style><linearGradient id="Dégradé_sans_nom_15" x1="173.99" y1="50.5" x2="188.99" y2="50.5" gradientUnits="userSpaceOnUse"><stop offset="0" stop-color="#ffd550"/><stop offset="1" stop-color="#ffb900"/></linearGradient><linearGradient id="Dégradé_sans_nom_2" x1="117.49" y1="13.5" x2="117.49" y2="338.1" gradientUnits="userSpaceOnUse"><stop offset="0" stop-color="#00a096"/><stop offset="1" stop-color="#185a4c"/></linearGradient><linearGradient id="Dégradé_sans_nom_15-2" x1="5.99" y1="55.5" x2="228.99" y2="55.5" xlink:href="#Dégradé_sans_nom_15"/><linearGradient id="Dégradé_sans_nom_451" x1="119.53" y1="196.46" x2="119.53" y2="165.74" gradientUnits="userSpaceOnUse"><stop offset="0" stop-color="#ffb900"/><stop offset="1" stop-color="#ffd550"/></linearGradient><linearGradient id="Dégradé_sans_nom_451-2" x1="119.94" y1="165.83" x2="119.94" y2="129.37" xlink:href="#Dégradé_sans_nom_451"/><linearGradient id="Dégradé_sans_nom_451-3" x1="119.22" y1="141.94" x2="119.22" y2="97.5" xlink:href="#Dégradé_sans_nom_451"/><linearGradient id="Dégradé_sans_nom_2-2" x1="119.49" y1="80.24" x2="119.49" y2="50.58" xlink:href="#Dégradé_sans_nom_2"/><linearGradient id="Dégradé_sans_nom_11" x1="119.53" y1="193.63" x2="119.53" y2="168.57" xlink:href="#Dégradé_sans_nom_15"/><linearGradient id="Dégradé_sans_nom_11-2" x1="119.94" y1="163" x2="119.94" y2="132.21" xlink:href="#Dégradé_sans_nom_15"/><linearGradient id="Dégradé_sans_nom_11-3" x1="119.22" y1="139.1" x2="119.22" y2="100.33" xlink:href="#Dégradé_sans_nom_15"/></defs><g id="Calque_2" data-name="Calque 2"><g id="Calque_2-2" data-name="Calque 2"><line class="cls-1" x1="181.49" y1="25.5" x2="181.49" y2="75.5"/><path class="cls-2" d="M213.49,91.5V201.15a28.34,28.34,0,0,1-28.34,28.35H49.84a28.35,28.35,0,0,1-28.35-28.35V91l96-77.54Z"/><polyline class="cls-3" points="13.49 97.5 117.49 13.5 221.49 97.5"/><path class="cls-4" d="M117.49,6a7.52,7.52,0,0,1,4.72,1.67L174,49.49v-24a7.5,7.5,0,0,1,15,0V61.61l37.22,30.06a7.5,7.5,0,1,1-9.43,11.66l-3.29-2.65V201.15a28.34,28.34,0,0,1-28.34,28.35H49.84a28.35,28.35,0,0,1-28.35-28.35V100.68l-3.28,2.65A7.5,7.5,0,1,1,8.78,91.67l104-84A7.52,7.52,0,0,1,117.49,6m0-6A13.53,13.53,0,0,0,109,3L5,87a13.5,13.5,0,0,0,8.49,24,13.13,13.13,0,0,0,2-.15v90.3A34.39,34.39,0,0,0,49.84,235.5H185.15a34.38,34.38,0,0,0,34.34-34.35v-90.3A13.5,13.5,0,0,0,232,106a13.52,13.52,0,0,0-2-19L195,58.74V25.5a13.5,13.5,0,0,0-27,0V36.93L126,3a13.53,13.53,0,0,0-8.49-3Z"/><circle class="cls-5" cx="119.53" cy="181.1" r="15.36"/><path class="cls-6" d="M156.25,144.09c-.23-.24-.47-.45-.71-.66l-.69-.66a4.26,4.26,0,0,0-.38-.32,50.12,50.12,0,0,0-69.23,1.63L83,146.31l-3.08,3.08A9.65,9.65,0,0,0,93.58,163l5.31-5.31a31,31,0,0,1,43.72,0l3.83,3.71a9.57,9.57,0,0,0,16.3-6.78,9.43,9.43,0,0,0-2.78-6.73Z"/><path class="cls-7" d="M182.42,125.09l-3.19-3.19s0,0,0,0l-2.52-2.54a9.17,9.17,0,0,0-1.43-1.14,83.62,83.62,0,0,0-113,2.6c-.15.14-.32.23-.48.38L56,126.94a8.8,8.8,0,0,0,12.45,12.44l5.76-5.76a.65.65,0,0,1,.11-.12,66,66,0,0,1,91.11-.5l4.53,4.54a8.8,8.8,0,0,0,12.44-12.45Z"/><circle class="cls-8" cx="119.49" cy="65.41" r="14.83"/><path class="cls-9" d="M119.53,193.63a12.53,12.53,0,1,1,12.53-12.53A12.54,12.54,0,0,1,119.53,193.63Z"/><path class="cls-10" d="M86.8,163a6.82,6.82,0,0,1-4.86-11.61L85,148.31l2.23-2.23a47.28,47.28,0,0,1,65.31-1.53l.08.07.2.16h0l.77.72.21.19.4.38,3.71,3.82a6.56,6.56,0,0,1,2,4.75,6.76,6.76,0,0,1-6.74,6.74h0a6.66,6.66,0,0,1-4.72-2l-3.86-3.74a33.81,33.81,0,0,0-47.7,0L91.57,161A6.66,6.66,0,0,1,86.8,163Z"/><path class="cls-11" d="M62.3,139.1a6,6,0,0,1-6-6A5.88,5.88,0,0,1,58,129l5.7-5.71a4.71,4.71,0,0,0,.45-.36,80.79,80.79,0,0,1,109.19-2.56l.15.13.18.11a6.39,6.39,0,0,1,1,.79l3,3.05h0l2.69,2.7a6,6,0,0,1-4.25,10.15h0a5.88,5.88,0,0,1-4.18-1.72L167.45,131a68.86,68.86,0,0,0-95,.44,4.16,4.16,0,0,0-.3.31l-5.64,5.63A5.82,5.82,0,0,1,62.3,139.1Z"/></g></g></svg>