<svg xmlns="http://www.w3.org/2000/svg" xmlns:xlink="http://www.w3.org/1999/xlink" viewBox="0 0 179.24 236"><defs><style>.cls-1{fill:url(#Dégradé_sans_nom_13);}.cls-2{fill:url(#Dégradé_sans_nom_11);}.cls-3{fill:url(#Dégradé_sans_nom_16);}.cls-4{fill:url(#Dégradé_sans_nom_196);}.cls-5{fill:url(#Dégradé_sans_nom_11-2);}.cls-6{fill:url(#Dégradé_sans_nom_11-3);}.cls-7{fill:url(#Dégradé_sans_nom_11-4);}.cls-8{fill:url(#Dégradé_sans_nom_11-5);}.cls-9{fill:url(#Dégradé_sans_nom_196-2);}.cls-10{fill:url(#Dégradé_sans_nom_196-3);}.cls-11{fill:url(#Dégradé_sans_nom_11-6);}.cls-12{fill:url(#Dégradé_sans_nom_11-8);}.cls-13{fill:#f4f4f4;}</style><linearGradient id="Dégradé_sans_nom_13" x1="6" y1="165.58" x2="39.97" y2="165.58" gradientUnits="userSpaceOnUse"><stop offset="0" stop-color="#185a4c"/><stop offset="1" stop-color="#00a096"/></linearGradient><linearGradient id="Dégradé_sans_nom_11" x1="39.97" y1="159.87" x2="141.32" y2="159.87" gradientUnits="userSpaceOnUse"><stop offset="0" stop-color="#ffd550"/><stop offset="1" stop-color="#ffb900"/></linearGradient><linearGradient id="Dégradé_sans_nom_16" x1="14.98" y1="191.58" x2="30.98" y2="191.58" gradientUnits="userSpaceOnUse"><stop offset="0" stop-color="#00a096"/><stop offset="1" stop-color="#185a4c"/></linearGradient><linearGradient id="Dégradé_sans_nom_196" x1="116.61" y1="67.15" x2="116.61" y2="230" gradientUnits="userSpaceOnUse"><stop offset="0" stop-color="#ff005c"/><stop offset="1" stop-color="#bf0005"/></linearGradient><linearGradient id="Dégradé_sans_nom_11-2" x1="144.43" y1="199.58" x2="79.04" y2="199.58" xlink:href="#Dégradé_sans_nom_11"/><linearGradient id="Dégradé_sans_nom_11-3" x1="157.77" y1="180.01" x2="74.77" y2="179.13" xlink:href="#Dégradé_sans_nom_11"/><linearGradient id="Dégradé_sans_nom_11-4" x1="159.15" y1="159.58" x2="60.53" y2="159.58" xlink:href="#Dégradé_sans_nom_11"/><linearGradient id="Dégradé_sans_nom_11-5" x1="171.43" y1="140.37" x2="95.84" y2="139.18" xlink:href="#Dégradé_sans_nom_11"/><linearGradient id="Dégradé_sans_nom_196-2" x1="116.61" y1="6" x2="116.61" y2="119.26" xlink:href="#Dégradé_sans_nom_196"/><linearGradient id="Dégradé_sans_nom_196-3" x1="116.61" y1="110.37" x2="116.61" y2="14.89" xlink:href="#Dégradé_sans_nom_196"/><linearGradient id="Dégradé_sans_nom_11-6" x1="116.61" y1="26" x2="116.61" y2="99.26" xlink:href="#Dégradé_sans_nom_11"/><linearGradient id="Dégradé_sans_nom_11-8" x1="116.61" y1="97.85" x2="116.61" y2="27.42" xlink:href="#Dégradé_sans_nom_11"/></defs><g id="Calque_2" data-name="Calque 2"><g id="Calque_2-2" data-name="Calque 2"><rect class="cls-1" x="6" y="121.58" width="33.97" height="88" rx="7.36"/><path class="cls-2" d="M111,129.58l-8,80H81.68a20.35,20.35,0,0,1-11.1-4h0a18.22,18.22,0,0,0-5.46-3.09L40,193.58v-56l9.37-3.51a20.41,20.41,0,0,0,8.35-5.84l6.46-7.54a23.57,23.57,0,0,1,7.56-5.84l11.86-3.26A39,39,0,0,1,99,110.48a59.08,59.08,0,0,1,24.33,8.67c16.07,10.43,18,12.85,18,12.85l-16,10L111,129.58"/><circle class="cls-3" cx="22.98" cy="191.58" r="8"/><rect class="cls-4" x="104.95" y="67.15" width="23.32" height="162.85" rx="11.66"/><rect class="cls-5" x="91.44" y="189.58" width="51.55" height="20" rx="10"/><rect class="cls-6" x="86.98" y="169.58" width="60" height="20" rx="10"/><rect class="cls-7" x="74.98" y="149.58" width="84" height="20" rx="10"/><rect class="cls-8" x="86.98" y="129.58" width="68" height="20" rx="10"/><circle class="cls-9" cx="116.61" cy="62.63" r="56.63"/><circle class="cls-10" cx="116.61" cy="62.63" r="47.74"/><path class="cls-11" d="M116.61,26a36.63,36.63,0,1,0,36.63,36.63A36.67,36.67,0,0,0,116.61,26ZM146.3,62.63A29.54,29.54,0,0,1,139.9,81L98.23,39.34A29.67,29.67,0,0,1,146.3,62.63Zm-59.38,0a29.51,29.51,0,0,1,6.4-18.37L135,85.92A29.66,29.66,0,0,1,86.92,62.63Z"/><path class="cls-11" d="M116.61,26a36.63,36.63,0,1,0,36.63,36.63A36.67,36.67,0,0,0,116.61,26ZM146.3,62.63A29.54,29.54,0,0,1,139.9,81L98.23,39.34A29.67,29.67,0,0,1,146.3,62.63Zm-59.38,0a29.51,29.51,0,0,1,6.4-18.37L135,85.92A29.66,29.66,0,0,1,86.92,62.63Z"/><path class="cls-12" d="M116.61,97.85a35.22,35.22,0,1,1,35.21-35.22A35.25,35.25,0,0,1,116.61,97.85ZM92.21,43.38a30.76,30.76,0,0,0-6.7,19.25,31.13,31.13,0,0,0,31.1,31.1A30.75,30.75,0,0,0,135.87,87l1.24-1L93.2,42.13Zm24.4-11.85a30.81,30.81,0,0,0-19.26,6.7l-1.25,1L140,83.14l1-1.25a30.81,30.81,0,0,0,6.7-19.26A31.13,31.13,0,0,0,116.61,31.53Z"/><path class="cls-13" d="M116.61,6a56.63,56.63,0,0,1,11.66,112.05v4.36c5.13,3.42,8.28,5.7,10.2,7.17H145a10,10,0,0,1,0,20h4a10,10,0,0,1,0,20H137a10,10,0,0,1,0,20h-4a10,10,0,0,1,0,20h-4.71v8.76a11.66,11.66,0,0,1-23.32,0v-8.76H81.68a20.35,20.35,0,0,1-11.1-4h0a18.22,18.22,0,0,0-5.46-3.09L40,193.58v8.64a7.37,7.37,0,0,1-7.36,7.36H13.36A7.36,7.36,0,0,1,6,202.22V128.94a7.35,7.35,0,0,1,7.36-7.36H32.61A7.36,7.36,0,0,1,40,128.94v8.64l9.37-3.51a20.41,20.41,0,0,0,8.35-5.84l6.46-7.54a23.57,23.57,0,0,1,7.56-5.84l11.86-3.26c1.09-.31,2.2-.55,3.31-.76A56.63,56.63,0,0,1,116.61,6m0-6A62.65,62.65,0,0,0,73.54,108.13l-3.42.94-.54.15-.5.24a29.53,29.53,0,0,0-9.49,7.33l-6.45,7.53a14.52,14.52,0,0,1-5.9,4.13l-1.27.47a13.37,13.37,0,0,0-13.36-13.34H13.36A13.37,13.37,0,0,0,0,128.94v73.28a13.37,13.37,0,0,0,13.36,13.36H32.61A13.37,13.37,0,0,0,46,202.22v-.14l17.15,6.09a12.2,12.2,0,0,1,3.65,2.06,26.41,26.41,0,0,0,14.91,5.35H99v2.76a17.66,17.66,0,0,0,35.32,0v-2.81A16,16,0,0,0,147.07,192a16,16,0,0,0,5.31-16.77,16,16,0,0,0,6.69-28.06A16,16,0,0,0,145,123.58h-4.51c-.83-.62-1.75-1.28-2.75-2A62.63,62.63,0,0,0,116.61,0Z"/></g></g></svg>