<svg xmlns="http://www.w3.org/2000/svg" xmlns:xlink="http://www.w3.org/1999/xlink" viewBox="0 0 163.23 236"><defs><style>.cls-1{fill:url(#Dégradé_sans_nom_5);}.cls-2{fill:url(#Dégradé_sans_nom_5-2);}.cls-3,.cls-4,.cls-5,.cls-6,.cls-7{fill:none;stroke-linejoin:round;}.cls-3{stroke-linecap:round;stroke-width:4px;stroke:url(#Dégradé_sans_nom_15);}.cls-4,.cls-5,.cls-6,.cls-7{stroke-width:6px;}.cls-4{stroke:url(#Dégradé_sans_nom_15-2);}.cls-5{stroke:url(#Dégradé_sans_nom_15-3);}.cls-6{stroke:url(#Dégradé_sans_nom_15-4);}.cls-7{stroke:url(#Dégradé_sans_nom_15-5);}.cls-8{fill:url(#Dégradé_sans_nom_5-3);}.cls-9{fill:#f4f4f4;}</style><linearGradient id="Dégradé_sans_nom_5" x1="81.62" y1="6" x2="81.62" y2="334.62" gradientUnits="userSpaceOnUse"><stop offset="0" stop-color="#00a096"/><stop offset="1" stop-color="#185a4c"/></linearGradient><linearGradient id="Dégradé_sans_nom_5-2" x1="80.61" y1="64.62" x2="80.61" y2="26.81" xlink:href="#Dégradé_sans_nom_5"/><linearGradient id="Dégradé_sans_nom_15" x1="92.67" y1="185.53" x2="128.73" y2="185.53" gradientUnits="userSpaceOnUse"><stop offset="0" stop-color="#ffd550"/><stop offset="1" stop-color="#ffb900"/></linearGradient><linearGradient id="Dégradé_sans_nom_15-2" x1="34.5" y1="82" x2="125.45" y2="82" xlink:href="#Dégradé_sans_nom_15"/><linearGradient id="Dégradé_sans_nom_15-3" x1="34.5" y1="94" x2="111.62" y2="94" xlink:href="#Dégradé_sans_nom_15"/><linearGradient id="Dégradé_sans_nom_15-4" x1="34.5" y1="118" x2="92.98" y2="118" xlink:href="#Dégradé_sans_nom_15"/><linearGradient id="Dégradé_sans_nom_15-5" x1="34.5" y1="130" x2="84.09" y2="130" xlink:href="#Dégradé_sans_nom_15"/><linearGradient id="Dégradé_sans_nom_5-3" x1="53.09" y1="184.75" x2="53.09" y2="153.64" xlink:href="#Dégradé_sans_nom_5"/></defs><g id="Calque_2" data-name="Calque 2"><g id="Calque_2-2" data-name="Calque 2"><rect class="cls-1" x="6" y="6" width="151.23" height="224" rx="14.54"/><rect class="cls-2" x="34.5" y="26.81" width="92.23" height="37.81" rx="9.87"/><path class="cls-3" d="M96.77,166.79c3.3,9,9.61,15,15.92,14.89,8.15-.11,15.26-10.34,13.86-12.33-2.41-3.43-33.31,13.13-31.83,18,1,3.28,16.15-1.24,22.07,6.67,2.46,3.28,2.41,7.47,2.06,10.27"/><line class="cls-4" x1="34.5" y1="82" x2="125.45" y2="82"/><line class="cls-5" x1="34.5" y1="94" x2="111.62" y2="94"/><line class="cls-6" x1="34.5" y1="118" x2="92.98" y2="118"/><line class="cls-7" x1="34.5" y1="130" x2="84.09" y2="130"/><path class="cls-8" d="M55.74,154.69h0a3.91,3.91,0,0,1,6.56,3.16h0A3.92,3.92,0,0,0,65.62,162h0a3.91,3.91,0,0,1,1.62,7.1h0a3.92,3.92,0,0,0-1.19,5.18h0A3.91,3.91,0,0,1,61.51,180h0a3.91,3.91,0,0,0-4.78,2.31h0a3.92,3.92,0,0,1-7.29,0h0A3.91,3.91,0,0,0,44.66,180h0a3.91,3.91,0,0,1-4.54-5.69h0a3.92,3.92,0,0,0-1.19-5.18h0a3.91,3.91,0,0,1,1.62-7.1h0a3.92,3.92,0,0,0,3.32-4.15h0a3.91,3.91,0,0,1,6.56-3.16h0A3.92,3.92,0,0,0,55.74,154.69Z"/><path class="cls-9" d="M142.69,6a14.54,14.54,0,0,1,14.54,14.54V215.46A14.54,14.54,0,0,1,142.69,230H20.54A14.54,14.54,0,0,1,6,215.46V20.54A14.54,14.54,0,0,1,20.54,6H142.69m0-6H20.54A20.56,20.56,0,0,0,0,20.54V215.46A20.56,20.56,0,0,0,20.54,236H142.69a20.56,20.56,0,0,0,20.54-20.54V20.54A20.56,20.56,0,0,0,142.69,0Z"/></g></g></svg>