<svg xmlns="http://www.w3.org/2000/svg" xmlns:xlink="http://www.w3.org/1999/xlink" viewBox="0 0 237.38 236.46"><defs><style>.cls-1{fill:url(#Dégradé_sans_nom_11);}.cls-2{fill:url(#Dégradé_sans_nom_2);}.cls-3{fill:url(#Dégradé_sans_nom_2-2);}.cls-4{fill:url(#Dégradé_sans_nom_2-3);}.cls-5{fill:url(#Dégradé_sans_nom_2-4);}.cls-6{fill:url(#Dégradé_sans_nom_2-5);}.cls-7{fill:#f4f4f4;}</style><linearGradient id="Dégradé_sans_nom_11" x1="118.69" y1="6" x2="118.69" y2="230.46" gradientUnits="userSpaceOnUse"><stop offset="0" stop-color="#ffd550"/><stop offset="1" stop-color="#ffb900"/></linearGradient><linearGradient id="Dégradé_sans_nom_2" x1="118.69" y1="173.7" x2="118.69" y2="76.19" gradientUnits="userSpaceOnUse"><stop offset="0" stop-color="#00a096"/><stop offset="1" stop-color="#185a4c"/></linearGradient><linearGradient id="Dégradé_sans_nom_2-2" x1="118.69" y1="76.19" x2="118.69" y2="173.7" xlink:href="#Dégradé_sans_nom_2"/><linearGradient id="Dégradé_sans_nom_2-3" x1="118.69" y1="62.3" x2="118.69" y2="90.08" xlink:href="#Dégradé_sans_nom_2"/><linearGradient id="Dégradé_sans_nom_2-4" x1="172.99" y1="118.31" x2="172.99" y2="136.77" xlink:href="#Dégradé_sans_nom_2"/><linearGradient id="Dégradé_sans_nom_2-5" x1="64.39" y1="118.31" x2="64.39" y2="136.77" xlink:href="#Dégradé_sans_nom_2"/></defs><g id="Calque_2" data-name="Calque 2"><g id="Calque_2-2" data-name="Calque 2"><path class="cls-1" d="M127.77,7.65h0A25.83,25.83,0,0,1,155,13.43h0a25.76,25.76,0,0,0,16.59,7.39h0a25.84,25.84,0,0,1,22.51,16.35h0a25.79,25.79,0,0,0,12.15,13.5h0a25.81,25.81,0,0,1,13.91,24.09h0A25.85,25.85,0,0,0,225.75,92h0a25.8,25.8,0,0,1,2.91,27.66h0a25.86,25.86,0,0,0-1.9,18.07h0a25.81,25.81,0,0,1-8.59,26.45h0A25.83,25.83,0,0,0,209.08,180h0a25.81,25.81,0,0,1-18.61,20.67h0a25.8,25.8,0,0,0-14.69,10.68h0a25.82,25.82,0,0,1-25.42,11.31h0a25.83,25.83,0,0,0-17.76,3.78h0a25.83,25.83,0,0,1-27.82,0h0A25.84,25.84,0,0,0,87,222.61h0A25.81,25.81,0,0,1,61.6,211.3h0a25.8,25.8,0,0,0-14.69-10.68h0A25.82,25.82,0,0,1,28.29,180h0a25.82,25.82,0,0,0-9.08-15.73h0a25.82,25.82,0,0,1-8.6-26.45h0A25.8,25.8,0,0,0,8.72,119.7h0A25.8,25.8,0,0,1,11.62,92h0a25.81,25.81,0,0,0,5.62-17.28h0a25.82,25.82,0,0,1,13.9-24.09h0A25.77,25.77,0,0,0,43.3,37.17h0A25.82,25.82,0,0,1,65.8,20.82h0a25.79,25.79,0,0,0,16.6-7.39h0a25.83,25.83,0,0,1,27.21-5.78h0A25.81,25.81,0,0,0,127.77,7.65Z"/><path class="cls-2" d="M152.75,132.94l15.72-7a5.25,5.25,0,0,1,6.89,7L157.7,170.68a5.27,5.27,0,0,1-4.76,3H84.44a5.26,5.26,0,0,1-4.76-3L62,133a5.25,5.25,0,0,1,6.89-7l15.71,7a5.26,5.26,0,0,0,6.95-2.7l22.3-50.9a5.26,5.26,0,0,1,9.63,0l22.31,50.9A5.25,5.25,0,0,0,152.75,132.94Z"/><path class="cls-3" d="M152.75,132.94l15.72-7a5.25,5.25,0,0,1,6.89,7L157.7,170.68a5.27,5.27,0,0,1-4.76,3H84.44a5.26,5.26,0,0,1-4.76-3L62,133a5.25,5.25,0,0,1,6.89-7l15.71,7a5.26,5.26,0,0,0,6.95-2.7l22.3-50.9a5.26,5.26,0,0,1,9.63,0l22.31,50.9A5.25,5.25,0,0,0,152.75,132.94Z"/><circle class="cls-4" cx="118.69" cy="76.19" r="13.89"/><circle class="cls-5" cx="172.99" cy="127.54" r="9.23"/><circle class="cls-6" cx="64.39" cy="127.54" r="9.23"/><path class="cls-7" d="M136.85,6A25.85,25.85,0,0,1,155,13.43a25.76,25.76,0,0,0,16.59,7.39,25.84,25.84,0,0,1,22.51,16.35h0a25.79,25.79,0,0,0,12.15,13.5,25.81,25.81,0,0,1,13.91,24.09A25.85,25.85,0,0,0,225.75,92a25.8,25.8,0,0,1,2.91,27.66,25.86,25.86,0,0,0-1.9,18.07,25.81,25.81,0,0,1-8.59,26.45A25.83,25.83,0,0,0,209.08,180h0a25.81,25.81,0,0,1-18.61,20.67,25.8,25.8,0,0,0-14.69,10.68,25.84,25.84,0,0,1-21.55,11.61,25.42,25.42,0,0,1-3.87-.3,26.29,26.29,0,0,0-3.86-.29,25.78,25.78,0,0,0-13.9,4.07,25.81,25.81,0,0,1-27.82,0,25.82,25.82,0,0,0-13.91-4.07,26.5,26.5,0,0,0-3.86.29,25.19,25.19,0,0,1-3.86.3A25.83,25.83,0,0,1,61.6,211.3a25.8,25.8,0,0,0-14.69-10.68A25.82,25.82,0,0,1,28.29,180h0a25.82,25.82,0,0,0-9.08-15.73,25.82,25.82,0,0,1-8.6-26.45A25.8,25.8,0,0,0,8.72,119.7,25.8,25.8,0,0,1,11.62,92a25.81,25.81,0,0,0,5.62-17.28,25.82,25.82,0,0,1,13.9-24.09A25.77,25.77,0,0,0,43.3,37.17h0A25.82,25.82,0,0,1,65.8,20.82a25.79,25.79,0,0,0,16.6-7.39,25.83,25.83,0,0,1,27.21-5.78,25.76,25.76,0,0,0,9.08,1.65,25.8,25.8,0,0,0,9.08-1.65A25.82,25.82,0,0,1,136.85,6m0-6a31.49,31.49,0,0,0-11.19,2,19.76,19.76,0,0,1-7,1.26,19.51,19.51,0,0,1-7-1.27A31.85,31.85,0,0,0,78.18,9.16a19.76,19.76,0,0,1-12.73,5.67A31.94,31.94,0,0,0,37.71,35a19.76,19.76,0,0,1-9.33,10.37A31.9,31.9,0,0,0,11.24,75,19.77,19.77,0,0,1,6.93,88.29a31.93,31.93,0,0,0-3.58,34.1,19.8,19.8,0,0,1,1.46,13.86A31.92,31.92,0,0,0,15.4,168.86a19.78,19.78,0,0,1,7,12.07,31.92,31.92,0,0,0,22.94,25.48,19.76,19.76,0,0,1,11.28,8.19,31.73,31.73,0,0,0,26.56,14.31,33.05,33.05,0,0,0,4.76-.36,19.66,19.66,0,0,1,13.64,2.9,31.82,31.82,0,0,0,34.28,0,19.66,19.66,0,0,1,13.64-2.9,33,33,0,0,0,4.76.36,31.71,31.71,0,0,0,26.55-14.31,19.79,19.79,0,0,1,11.28-8.19A31.9,31.9,0,0,0,215,180.93a19.83,19.83,0,0,1,7-12.07,31.92,31.92,0,0,0,10.6-32.61A19.8,19.8,0,0,1,234,122.39a31.93,31.93,0,0,0-3.59-34.1A19.87,19.87,0,0,1,226.13,75,31.89,31.89,0,0,0,209,45.35,19.84,19.84,0,0,1,199.66,35a31.93,31.93,0,0,0-27.73-20.15,19.81,19.81,0,0,1-12.74-5.67A31.61,31.61,0,0,0,136.85,0Z"/></g></g></svg>