<svg xmlns="http://www.w3.org/2000/svg" xmlns:xlink="http://www.w3.org/1999/xlink" viewBox="0 0 198.19 236.76"><defs><style>.cls-1{fill:url(#Dégradé_sans_nom_11);}.cls-2{fill:#00a096;}.cls-3{fill:#fff;}.cls-4{fill:#383838;}.cls-5{fill:url(#Dégradé_sans_nom_2);}.cls-6{fill:url(#Dégradé_sans_nom_11-2);}.cls-7{fill:#f4f4f4;}.cls-10,.cls-11,.cls-12,.cls-13,.cls-8,.cls-9{fill:none;stroke-miterlimit:10;stroke-width:5px;}.cls-8{stroke:url(#Dégradé_sans_nom_11-3);}.cls-9{stroke:url(#Dégradé_sans_nom_11-4);}.cls-10{stroke:url(#Dégradé_sans_nom_11-5);}.cls-11{stroke:url(#Dégradé_sans_nom_11-6);}.cls-12{stroke:url(#Dégradé_sans_nom_11-7);}.cls-13{stroke:url(#Dégradé_sans_nom_11-8);}</style><linearGradient id="Dégradé_sans_nom_11" x1="35.55" y1="177.61" x2="117.58" y2="177.61" gradientUnits="userSpaceOnUse"><stop offset="0" stop-color="#ffd550"/><stop offset="1" stop-color="#ffb900"/></linearGradient><linearGradient id="Dégradé_sans_nom_2" x1="-369.85" y1="1585.24" x2="-305.88" y2="1585.24" gradientTransform="translate(-299.9 1647.65) rotate(-178.66)" gradientUnits="userSpaceOnUse"><stop offset="0" stop-color="#00a096"/><stop offset="1" stop-color="#185a4c"/></linearGradient><linearGradient id="Dégradé_sans_nom_11-2" x1="78.49" y1="162.35" x2="160.79" y2="162.35" xlink:href="#Dégradé_sans_nom_11"/><linearGradient id="Dégradé_sans_nom_11-3" x1="62" y1="32.01" x2="81.26" y2="32.01" xlink:href="#Dégradé_sans_nom_11"/><linearGradient id="Dégradé_sans_nom_11-4" x1="29.09" y1="49.26" x2="63.9" y2="49.26" xlink:href="#Dégradé_sans_nom_11"/><linearGradient id="Dégradé_sans_nom_11-5" x1="4" y1="118.13" x2="64.09" y2="118.13" xlink:href="#Dégradé_sans_nom_11"/><linearGradient id="Dégradé_sans_nom_11-6" x1="40" y1="133.66" x2="61.71" y2="133.66" xlink:href="#Dégradé_sans_nom_11"/><linearGradient id="Dégradé_sans_nom_11-7" x1="26" y1="184.76" x2="39.71" y2="184.76" xlink:href="#Dégradé_sans_nom_11"/><linearGradient id="Dégradé_sans_nom_11-8" x1="0" y1="200.76" x2="24.85" y2="200.76" xlink:href="#Dégradé_sans_nom_11"/></defs><g id="Calque_2" data-name="Calque 2"><g id="Calque_2-2" data-name="Calque 2"><polyline class="cls-1" points="82.28 143.24 74.85 174.82 35.55 208.26 46.06 213.83 94.36 182.25 117.58 141.38"/><path class="cls-2" d="M130.31,126.75c1.4-22.55,6.78-37.69,6.78-37.69s10.22,19.21,17.34,20.94S187.7,91.31,187.7,91.31l-3.87-6S162.22,98.88,158,97.45s-6.12-23.27-11.2-27.36a116.24,116.24,0,0,0-15.59-10.32C121.89,62.38,106,52,106,52S97.5,58.15,91.6,73.13c-3.49,8.86-12.53,43.6-13,53.39Z"/><circle class="cls-3" cx="125.36" cy="33.85" r="18.88"/><path class="cls-4" d="M102.22,20.71c-2.45,8.49,2.47,17.74,4.79,17.56,1.65-.13.93-4.91,5.11-9.31.78-.82,5.11-5.18,10.34-4.75,5.63.46,6.34,6,13.14,7.87.41.12,6.26,1.63,11.25-1.17,9.65-5.41,9.35-23.13,5.9-24.56-2-.83-3.63,4.59-9.26,5.48-6,.94-8-4.58-16.58-5.66a23.66,23.66,0,0,0-13,2.22C112,9.32,104.49,12.88,102.22,20.71Z"/><path class="cls-5" d="M106.64,77.52s-31.76-9.92-60.81,12l-3.29-7.3a87.69,87.69,0,0,1,30.2-20A275.05,275.05,0,0,1,106,52"/><circle class="cls-3" cx="186.64" cy="87.51" r="5.54"/><circle class="cls-3" cx="44.3" cy="86.49" r="5.54"/><path class="cls-6" d="M81.72,126.54l-3.15,14.84s-2.08,7.6,14.86,9.29c18.57,1.86,44.58,6.5,44.58,6.5L127.79,195l13.45,3.16,19.51-45.76s.8-8.49-4.65-11.14-25.79-14.51-25.79-14.51"/><polygon class="cls-4" points="129.28 195.35 128.35 198.16 137.9 201.16 139.62 197.78 129.28 195.35"/><polygon class="cls-4" points="36.76 208.92 35.41 211.56 42.42 216.09 44.62 213.01 36.76 208.92"/><path class="cls-2" d="M129.28,198.46a2.72,2.72,0,0,1-1.46-1.12l-.46-.71-3.83,8.61a2.71,2.71,0,0,0,1.56,3.65l17.37,6.2a4.42,4.42,0,0,0,5.85-3.44h0a4.47,4.47,0,0,0-.54-2.93l-2.22-3.85a4.41,4.41,0,0,0-2.44-2l-5.21-1.72Z"/><path class="cls-2" d="M35.41,211.56a2.76,2.76,0,0,1-1.26-1.35l-.33-.78-5.23,7.83a2.7,2.7,0,0,0,.92,3.87l16.07,9.06a4.42,4.42,0,0,0,6.34-2.41h0a4.45,4.45,0,0,0,0-3l-1.54-4.18a4.44,4.44,0,0,0-2.06-2.37l-4.84-2.58Z"/><path class="cls-7" d="M124.22,6a20.9,20.9,0,0,1,2.69.17c7.87,1,10.23,5.77,15.24,5.77a9.07,9.07,0,0,0,1.34-.11c5.23-.82,7-5.56,8.83-5.56a1.12,1.12,0,0,1,.43.08c3.45,1.43,3.75,19.15-5.9,24.56A12.69,12.69,0,0,1,144.14,32,18.87,18.87,0,0,1,107,38.27H107c-2.35,0-7.16-9.15-4.73-17.56C104.49,12.88,112,9.32,114,8.39A24.18,24.18,0,0,1,124.22,6m0-6a29.82,29.82,0,0,0-12.83,3C101.54,7.63,97.84,14.28,96.46,19a25.65,25.65,0,0,0,3.63,21.28,12.26,12.26,0,0,0,1.9,2,24.86,24.86,0,0,0,48.15-6.42c8.13-4.82,11.27-15.49,10.75-24-.44-7.36-3.43-10.1-5.86-11.1a7,7,0,0,0-2.71-.54c-3.26,0-5.3,2.09-6.65,3.48-1.18,1.22-2,2-3.12,2.15a3,3,0,0,1-.4,0c-.64,0-1.4-.42-3.1-1.45A27.33,27.33,0,0,0,127.66.22,26.26,26.26,0,0,0,124.22,0Z"/><path class="cls-7" d="M106,52s12.59,8.24,21.92,8.24a12.26,12.26,0,0,0,3.31-.42,116.24,116.24,0,0,1,15.59,10.32c5.08,4.09,6.95,25.92,11.2,27.36a2.46,2.46,0,0,0,.76.1c4.31,0,16.84-7.22,22.39-10.55a5.6,5.6,0,0,1,.5-1.85,5.54,5.54,0,1,1,5,7.9,5.65,5.65,0,0,1-1.08-.11c-6.06,4.56-23.43,17.16-30.18,17.16a4,4,0,0,1-.95-.1c-7.12-1.73-17.34-20.94-17.34-20.94s-5.38,15.14-6.78,37.69c0,0,20.35,11.85,25.79,14.51s4.65,11.14,4.65,11.14l-19.51,45.76-1.62-.38-1.72,3.38,5.21,1.72a4.41,4.41,0,0,1,2.44,2l2.22,3.85a4.47,4.47,0,0,1,.54,2.93,4.42,4.42,0,0,1-4.36,3.7,4.37,4.37,0,0,1-1.49-.26l-17.37-6.2a2.71,2.71,0,0,1-1.56-3.65l3.83-8.61.46.71a2.8,2.8,0,0,0,.59.65l.87-2.64,2.09.5-3.58-.85L138,157.17s-12.86-2.29-27-4.3L94.36,182.25l-48.3,31.58-1.47-.78-1.68,2.36.54.27,4.84,2.58a4.44,4.44,0,0,1,2.06,2.37l1.54,4.18a4.42,4.42,0,0,1-4.15,5.95,4.37,4.37,0,0,1-2.16-.57l-16.07-9.06a2.7,2.7,0,0,1-.92-3.87l5.23-7.83.33.78a2.76,2.76,0,0,0,1.26,1.35l1.35-2.64,2.46,1.28-3.67-1.94,39.3-33.44,6.53-27.76c-3.63-2.66-2.81-5.68-2.81-5.68l3.15-14.84-3.15,0C79,117.4,86.91,86.64,90.8,75.31l-2,0a70.81,70.81,0,0,0-39,11.44A5.54,5.54,0,0,1,44.3,92h-.13a5.54,5.54,0,0,1-.41-11,89.86,89.86,0,0,1,29-18.74A275.05,275.05,0,0,1,106,52m1.13-6.42-2.5.58A276.91,276.91,0,0,0,70.53,56.66,96.39,96.39,0,0,0,40.81,75.49,11.53,11.53,0,0,0,44,98h.27a11.52,11.52,0,0,0,10.83-7.54,64.67,64.67,0,0,1,27.44-8.91c-4.09,14-9.57,36.28-10,44.63l-.32,6.28h2.07l-1.61,7.56a11.11,11.11,0,0,0,2.08,8.84l-5.33,22.63L36.25,199.79,35,196.86l-6.17,9.23h0l-3.89,3.31,1.24.66-2.57,3.86a8.72,8.72,0,0,0,3,12.43l16.07,9a10.41,10.41,0,0,0,14.89-12.67L56,218.56a10.5,10.5,0,0,0-1.68-2.95l43.34-28.34,1.22-.79.71-1.27,14.67-25.82c6.28.94,12.09,1.88,16.26,2.58L122,193.44l-.32,1.18L118,202.8a8.72,8.72,0,0,0,5,11.74l17.37,6.2a10.24,10.24,0,0,0,3.5.61,10.42,10.42,0,0,0,9-15.63l-2.23-3.85a10.32,10.32,0,0,0-3.12-3.38l18.65-43.73.36-.86.09-.93a24,24,0,0,0-.37-6.3c-1.26-6.48-4.84-9.45-7.62-10.8-3.9-1.91-16.24-9-22.16-12.42a164.74,164.74,0,0,1,2.8-19.42c5.06,7,9.42,10.77,13.64,11.8a10.13,10.13,0,0,0,2.37.27c6,0,16.78-5.74,32.07-17.08a11.6,11.6,0,0,0,9.63-6.59A11.54,11.54,0,0,0,186.64,76a11.6,11.6,0,0,0-10.44,6.62c-.07.16-.15.32-.22.49a111.16,111.16,0,0,1-15.26,7.86c-.74-2.09-1.57-5.24-2.19-7.56-2.42-9.13-4.17-14.89-8-18A120.77,120.77,0,0,0,134,54.48l-2.13-1.14-2.32.66a6.79,6.79,0,0,1-1.69.19c-5.46,0-14.33-4.46-18.64-7.26l-2.15-1.4Z"/><line class="cls-8" x1="81.26" y1="32.01" x2="62" y2="32.01"/><line class="cls-9" x1="63.9" y1="49.26" x2="29.09" y2="49.26"/><line class="cls-10" x1="64.09" y1="118.13" x2="4" y2="118.13"/><line class="cls-11" x1="61.71" y1="133.66" x2="40" y2="133.66"/><line class="cls-12" x1="39.71" y1="184.76" x2="26" y2="184.76"/><line class="cls-13" x1="24.85" y1="200.76" y2="200.76"/></g></g></svg>