<svg xmlns="http://www.w3.org/2000/svg" xmlns:xlink="http://www.w3.org/1999/xlink" viewBox="0 0 209.57 236"><defs><style>.cls-1{fill:url(#Dégradé_sans_nom_26);}.cls-2{fill:url(#Dégradé_sans_nom_37);}.cls-3{fill:url(#Dégradé_sans_nom_37-2);}.cls-4{fill:url(#Dégradé_sans_nom_10);}.cls-5{fill:#fff;}.cls-6{fill:#383838;}.cls-7{fill:#f4f4f4;}</style><linearGradient id="Dégradé_sans_nom_26" x1="140.97" y1="201.74" x2="140.97" y2="156.25" gradientUnits="userSpaceOnUse"><stop offset="0" stop-color="#185a4c"/><stop offset="1" stop-color="#00a096"/></linearGradient><linearGradient id="Dégradé_sans_nom_37" x1="288.89" y1="308.88" x2="281.92" y2="309.11" gradientTransform="translate(-82.63 -155) rotate(5.15)" gradientUnits="userSpaceOnUse"><stop offset="0.36" stop-color="#185a4c"/><stop offset="1" stop-color="#00a096" stop-opacity="0"/></linearGradient><linearGradient id="Dégradé_sans_nom_37-2" x1="172.94" y1="146.54" x2="99.05" y2="148.94" gradientTransform="matrix(1, 0, 0, 1, 0, 0)" xlink:href="#Dégradé_sans_nom_37"/><linearGradient id="Dégradé_sans_nom_10" x1="6" y1="118" x2="148.41" y2="118" gradientUnits="userSpaceOnUse"><stop offset="0" stop-color="#ffb900"/><stop offset="1" stop-color="#ffd550"/></linearGradient></defs><g id="Calque_2" data-name="Calque 2"><g id="Calque_2-2" data-name="Calque 2"><path class="cls-1" d="M88.21,201.74H203.57c0-14.24-.93-41.36-2.79-55.48h0a17.41,17.41,0,0,0-11.52-14.17L166.08,124h0a51.21,51.21,0,0,1-53,0h0L89.9,132.09c-6.21,2.17-11.52,6.39-11.52,14.17,0,38,9.83,16.6,9.83,55.48Z"/><path class="cls-2" d="M174.74,201.76s7.73-25.55-3.26-46.89"/><path class="cls-3" d="M103,134l28.09,17.11a5.47,5.47,0,0,0,7.58-1.92l22.82-39.27,13.28-5.83-30.05,81.62a6.65,6.65,0,0,1-8.88,3.8L96.93,172.64"/><path class="cls-4" d="M58.41,148.73c0-60.3,52.72-31.46,52.72-76C111.13,55.81,96.27,43,77.34,43,55.49,43,40.93,59.6,43.84,80.57H6.27C2.77,38.62,33.94,6,77.34,6c40.2,0,71.07,29.13,71.07,66.7,0,60.3-51.84,45.15-51.84,73.41v15.73H58.41Zm-3.79,57.38A23.89,23.89,0,1,1,78.51,230,24.06,24.06,0,0,1,54.62,206.11Z"/><circle class="cls-5" cx="139.58" cy="81.62" r="32.85"/><path class="cls-6" d="M95.2,68.43c-.83,15.35,11.14,29.1,15,27.89,2.74-.86-.36-8.68,5-17.79,1-1.69,6.63-10.78,15.65-12.1,9.74-1.43,13.11,7.7,25.36,8.18.75,0,11.25.3,18.62-6.41,14.23-13,6.77-42.88.35-43.94-3.77-.62-4.34,9.2-13.55,12.92-9.78,3.94-15.42-4.61-30.31-3.09A41.09,41.09,0,0,0,110.24,43C107.27,45.3,96,54.26,95.2,68.43Z"/><circle class="cls-5" cx="169.08" cy="105.49" r="9.64"/><path class="cls-7" d="M77.34,6C101.9,6,123,16.89,135.65,33.92c9.28.22,14.63,4.31,20.77,4.31a13.76,13.76,0,0,0,5.23-1c8.93-3.6,9.74-12.95,13.22-12.95a1.84,1.84,0,0,1,.33,0c6.42,1.06,13.88,31-.35,43.94a21.73,21.73,0,0,1-4.13,2.94,32.72,32.72,0,0,1,1,17.42,33.18,33.18,0,0,1-2.5,7.29A9.64,9.64,0,0,1,170.73,115l-3.47,9.41,22,7.7a17.41,17.41,0,0,1,11.52,14.17c1.86,14.12,2.79,41.24,2.79,55.48H102a24.24,24.24,0,0,1,.4,4.37,23.89,23.89,0,1,1-23.88-24.17A23.47,23.47,0,0,1,87,183.52c-2-10.8-6-9.53-7.74-21.68H58.41V148.73c0-47,32.05-39.84,46.17-55.53-4.67-4.79-9.94-14.41-9.38-24.77a30.75,30.75,0,0,1,6.35-16.71A36.16,36.16,0,0,0,77.34,43C55.49,43,40.93,59.6,43.84,80.57H6.27C2.77,38.62,33.94,6,77.34,6m62.28,108.46a32.44,32.44,0,0,1-6.32-.61c-5.67,5.13-12.17,8.4-18.12,11.4a51.74,51.74,0,0,0,34.38,5.15L161,110.73a9.78,9.78,0,0,1-1.32-3.13,32.78,32.78,0,0,1-20,6.86M77.34,0C54.17,0,33.45,8.65,19,24.35,5.14,39.41-1.51,59.55.29,81.07l.46,5.5h50l-.94-6.83c-1.16-8.31.92-16,5.86-21.67C60.74,52.22,68.45,49,77.34,49a31.54,31.54,0,0,1,16.15,4.23,34.82,34.82,0,0,0-4.28,14.89,40.32,40.32,0,0,0,7.1,24.34,67.69,67.69,0,0,1-11,5.56c-14.67,6.4-32.93,14.37-32.93,50.72v19.11h21.9A30.71,30.71,0,0,0,77.68,176a30,30,0,1,0,30.67,31.79H209.57v-6c0-14-.9-41.54-2.84-56.26a23.31,23.31,0,0,0-15.49-19.06L175,120.74l.34-.92A15.62,15.62,0,0,0,177,92c.2-.73.38-1.46.54-2.2a38.71,38.71,0,0,0,.07-16.11c.44-.35.86-.71,1.27-1.09,5.32-4.84,8.69-11.93,9.74-20.5a52.1,52.1,0,0,0-1.69-20.4c-1.65-5.57-4.85-12.41-10.76-13.39a8.37,8.37,0,0,0-1.31-.11c-4.84,0-7.18,3.87-8.89,6.69-1.59,2.63-3.23,5.35-6.57,6.69a7.78,7.78,0,0,1-3,.62,22.77,22.77,0,0,1-6.55-1.52,51.24,51.24,0,0,0-11.14-2.6C124.3,10.21,102.09,0,77.34,0Zm62.28,120.46a38.75,38.75,0,0,0,9.47-1.18l-3.3,5.66a44.59,44.59,0,0,1-6.21.43,45.38,45.38,0,0,1-10.11-1.14,60.89,60.89,0,0,0,5.63-4,37.93,37.93,0,0,0,4.52.26Z"/><polygon class="cls-7" points="133.32 117.86 125.48 125.38 140.97 128.2 148.41 126 150.78 116 139.07 118 133.32 117.86"/></g></g></svg>