<svg xmlns="http://www.w3.org/2000/svg" xmlns:xlink="http://www.w3.org/1999/xlink" viewBox="0 0 236 236"><defs><style>.cls-1{fill:url(#Dégradé_sans_nom_15);}.cls-2{fill:url(#Dégradé_sans_nom_15-2);}.cls-3{fill:url(#Dégradé_sans_nom_15-3);}.cls-4{fill:url(#Dégradé_sans_nom_15-4);}.cls-5{fill:url(#Dégradé_sans_nom_5);}.cls-6{fill:url(#Dégradé_sans_nom_5-2);}.cls-7{fill:url(#Dégradé_sans_nom_5-3);}.cls-8{fill:url(#Dégradé_sans_nom_5-4);}.cls-9{fill:url(#Dégradé_sans_nom_5-5);}.cls-10{fill:url(#Dégradé_sans_nom_5-6);}.cls-11{fill:url(#Dégradé_sans_nom_15-5);}.cls-12{fill:url(#Dégradé_sans_nom_5-7);}.cls-13{fill:url(#Dégradé_sans_nom_15-6);}.cls-14{fill:url(#Dégradé_sans_nom_15-7);}.cls-15{fill:url(#Dégradé_sans_nom_5-8);}.cls-16{fill:url(#Dégradé_sans_nom_5-9);}.cls-17{fill:url(#Dégradé_sans_nom_5-10);}.cls-18{fill:url(#Dégradé_sans_nom_15-8);}.cls-19{fill:url(#Dégradé_sans_nom_15-9);}.cls-20{fill:#f4f4f4;}</style><linearGradient id="Dégradé_sans_nom_15" x1="38" y1="85" x2="46" y2="85" gradientUnits="userSpaceOnUse"><stop offset="0" stop-color="#ffd550"/><stop offset="1" stop-color="#ffb900"/></linearGradient><linearGradient id="Dégradé_sans_nom_15-2" x1="58" x2="66" xlink:href="#Dégradé_sans_nom_15"/><linearGradient id="Dégradé_sans_nom_15-3" x1="78" x2="86" xlink:href="#Dégradé_sans_nom_15"/><linearGradient id="Dégradé_sans_nom_15-4" x1="14" x2="106" xlink:href="#Dégradé_sans_nom_15"/><linearGradient id="Dégradé_sans_nom_5" x1="166" y1="6" x2="166" y2="338.42" gradientUnits="userSpaceOnUse"><stop offset="0" stop-color="#00a096"/><stop offset="1" stop-color="#185a4c"/></linearGradient><linearGradient id="Dégradé_sans_nom_5-2" x1="54" y1="94" x2="54" y2="295.82" xlink:href="#Dégradé_sans_nom_5"/><linearGradient id="Dégradé_sans_nom_5-3" x1="165.6" y1="230" x2="165.6" y2="192" xlink:href="#Dégradé_sans_nom_5"/><linearGradient id="Dégradé_sans_nom_5-4" x1="54" y1="230" x2="54" y2="192" xlink:href="#Dégradé_sans_nom_5"/><linearGradient id="Dégradé_sans_nom_5-5" x1="127.9" y1="63.19" x2="127.9" y2="33.11" xlink:href="#Dégradé_sans_nom_5"/><linearGradient id="Dégradé_sans_nom_5-6" x1="165.6" y1="63.19" x2="165.6" y2="33.11" xlink:href="#Dégradé_sans_nom_5"/><linearGradient id="Dégradé_sans_nom_15-5" x1="34.52" y1="151.82" x2="34.52" y2="121.74" xlink:href="#Dégradé_sans_nom_15"/><linearGradient id="Dégradé_sans_nom_5-7" x1="72.22" y1="151.82" x2="72.22" y2="121.74" xlink:href="#Dégradé_sans_nom_5"/><linearGradient id="Dégradé_sans_nom_15-6" x1="203.3" y1="63.19" x2="203.3" y2="33.11" xlink:href="#Dégradé_sans_nom_15"/><linearGradient id="Dégradé_sans_nom_15-7" x1="127.9" y1="107.19" x2="127.9" y2="77.11" xlink:href="#Dégradé_sans_nom_15"/><linearGradient id="Dégradé_sans_nom_5-8" x1="165.6" y1="107.19" x2="165.6" y2="77.11" xlink:href="#Dégradé_sans_nom_5"/><linearGradient id="Dégradé_sans_nom_5-9" x1="203.3" y1="107.19" x2="203.3" y2="77.11" xlink:href="#Dégradé_sans_nom_5"/><linearGradient id="Dégradé_sans_nom_5-10" x1="127.9" y1="151.19" x2="127.9" y2="121.11" xlink:href="#Dégradé_sans_nom_5"/><linearGradient id="Dégradé_sans_nom_15-8" x1="165.6" y1="151.19" x2="165.6" y2="121.11" xlink:href="#Dégradé_sans_nom_15"/><linearGradient id="Dégradé_sans_nom_15-9" x1="203.3" y1="151.19" x2="203.3" y2="121.11" xlink:href="#Dégradé_sans_nom_15"/></defs><g id="Calque_2" data-name="Calque 2"><g id="Calque_2-2" data-name="Calque 2"><path class="cls-1" d="M42,98a4,4,0,0,1-4-4V76a4,4,0,0,1,8,0V94A4,4,0,0,1,42,98Z"/><path class="cls-2" d="M62,98a4,4,0,0,1-4-4V76a4,4,0,0,1,8,0V94A4,4,0,0,1,62,98Z"/><path class="cls-3" d="M82,98a4,4,0,0,1-4-4V76a4,4,0,0,1,8,0V94A4,4,0,0,1,82,98Z"/><path class="cls-4" d="M18,98a4,4,0,0,1-4-4V76a4,4,0,0,1,4-4h84a4,4,0,0,1,0,8H22V94A4,4,0,0,1,18,98Z"/><path class="cls-5" d="M111.69,6H220.31A9.69,9.69,0,0,1,230,15.69V220.31a9.69,9.69,0,0,1-9.69,9.69H102a0,0,0,0,1,0,0V15.69A9.69,9.69,0,0,1,111.69,6Z"/><path class="cls-6" d="M15.69,94H102a0,0,0,0,1,0,0V230a0,0,0,0,1,0,0H15.69A9.69,9.69,0,0,1,6,220.31V103.69A9.69,9.69,0,0,1,15.69,94Z"/><path class="cls-7" d="M157,192h17.29a2.57,2.57,0,0,1,2.57,2.57V230a0,0,0,0,1,0,0H154.39a0,0,0,0,1,0,0V194.57A2.57,2.57,0,0,1,157,192Z"/><path class="cls-8" d="M25,192H83a2.57,2.57,0,0,1,2.57,2.57V230a0,0,0,0,1,0,0h-63a0,0,0,0,1,0,0V194.57A2.57,2.57,0,0,1,25,192Z"/><rect class="cls-9" x="115.86" y="33.11" width="24.08" height="30.08" rx="2.95"/><rect class="cls-10" x="153.56" y="33.11" width="24.08" height="30.08" rx="2.95"/><rect class="cls-11" x="22.48" y="121.74" width="24.08" height="30.08" rx="2.95"/><rect class="cls-12" x="60.18" y="121.74" width="24.08" height="30.08" rx="2.95"/><rect class="cls-13" x="191.26" y="33.11" width="24.08" height="30.08" rx="2.95"/><rect class="cls-14" x="115.86" y="77.11" width="24.08" height="30.08" rx="2.95"/><rect class="cls-15" x="153.56" y="77.11" width="24.08" height="30.08" rx="2.95"/><rect class="cls-16" x="191.26" y="77.11" width="24.08" height="30.08" rx="2.95"/><rect class="cls-17" x="115.86" y="121.11" width="24.08" height="30.08" rx="2.95"/><rect class="cls-18" x="153.56" y="121.11" width="24.08" height="30.08" rx="2.95"/><rect class="cls-19" x="191.26" y="121.11" width="24.08" height="30.08" rx="2.95"/><path class="cls-20" d="M220.31,6A9.69,9.69,0,0,1,230,15.69V220.31a9.69,9.69,0,0,1-9.69,9.69H15.69A9.69,9.69,0,0,1,6,220.31V103.69a9.69,9.69,0,0,1,8-9.54A.77.77,0,0,1,14,94V76a4,4,0,0,1,4-4h84V15.69A9.69,9.69,0,0,1,111.69,6H220.31M86,94h16V80H86V94M66,94H78V80H66V94M46,94H58V80H46V94M22,94H38V80H22V94M220.31,0H111.69A15.71,15.71,0,0,0,96,15.69V66H18A10,10,0,0,0,8,76V90a15.66,15.66,0,0,0-8,13.68V220.31A15.71,15.71,0,0,0,15.69,236H220.31A15.71,15.71,0,0,0,236,220.31V15.69A15.71,15.71,0,0,0,220.31,0ZM92,86h4v2H92V86ZM28,86h4v2H28V86Z"/><rect class="cls-20" x="26.64" y="85" width="9.36" height="5"/><rect class="cls-20" x="88.53" y="84.49" width="10.93" height="5.02"/></g></g></svg>