<svg xmlns="http://www.w3.org/2000/svg" xmlns:xlink="http://www.w3.org/1999/xlink" viewBox="0 0 236.03 208"><defs><style>.cls-1,.cls-7,.cls-8,.cls-9{fill:none;}.cls-2{fill:url(#Dégradé_sans_nom_5);}.cls-3{fill:url(#Dégradé_sans_nom_5-2);}.cls-4{fill:url(#Dégradé_sans_nom_15);}.cls-5{fill:url(#Dégradé_sans_nom_15-2);}.cls-6{clip-path:url(#clip-path);}.cls-7,.cls-8,.cls-9{stroke-linecap:round;stroke-linejoin:round;stroke-width:20px;}.cls-7{stroke:url(#Dégradé_sans_nom_19);}.cls-8{stroke:url(#Dégradé_sans_nom_19-2);}.cls-9{stroke:url(#Dégradé_sans_nom_19-3);}.cls-10{fill:#f4f4f4;}</style><linearGradient id="Dégradé_sans_nom_5" x1="118.01" y1="14" x2="118.01" y2="290.51" gradientUnits="userSpaceOnUse"><stop offset="0" stop-color="#00a096"/><stop offset="1" stop-color="#185a4c"/></linearGradient><linearGradient id="Dégradé_sans_nom_5-2" x1="118.01" y1="202" x2="118.01" y2="134.23" xlink:href="#Dégradé_sans_nom_5"/><linearGradient id="Dégradé_sans_nom_15" x1="118.01" y1="6" x2="118.01" y2="109.6" gradientUnits="userSpaceOnUse"><stop offset="0" stop-color="#ffd550"/><stop offset="1" stop-color="#ffb900"/></linearGradient><linearGradient id="Dégradé_sans_nom_15-2" x1="118.01" y1="109.6" x2="118.01" y2="56.46" xlink:href="#Dégradé_sans_nom_15"/><clipPath id="clip-path" transform="translate(0 4)"><path class="cls-1" d="M171,6h-106a25.3,25.3,0,0,0-19.67,9.4L12.26,56.48A27.49,27.49,0,0,0,9,86.29a43.08,43.08,0,0,0,73.68,4.78,43.06,43.06,0,0,0,70.78,0,43.09,43.09,0,0,0,73.18-3.83,27.76,27.76,0,0,0-2.8-30.78L190.7,15.4A25.3,25.3,0,0,0,171,6Z"/></clipPath><linearGradient id="Dégradé_sans_nom_19" x1="61.01" y1="123.6" x2="61.01" y2="0" xlink:href="#Dégradé_sans_nom_15"/><linearGradient id="Dégradé_sans_nom_19-2" x1="1421.01" y1="119.6" x2="1421.01" y2="-4" gradientTransform="matrix(-1, 0, 0, 1, 1596.01, 4)" xlink:href="#Dégradé_sans_nom_15"/><linearGradient id="Dégradé_sans_nom_19-3" x1="118.01" y1="123.6" x2="118.01" y2="0" xlink:href="#Dégradé_sans_nom_15"/></defs><g id="Calque_2" data-name="Calque 2"><g id="Calque_2-2" data-name="Calque 2"><path class="cls-2" d="M214,92v77.65A28.35,28.35,0,0,1,185.66,198H50.35A28.34,28.34,0,0,1,22,169.65V91.54L118,14Z" transform="translate(0 4)"/><path class="cls-3" d="M80.54,134.23h74.94a6.53,6.53,0,0,1,6.53,6.53V202a0,0,0,0,1,0,0H74a0,0,0,0,1,0,0V140.76A6.53,6.53,0,0,1,80.54,134.23Z"/><path class="cls-4" d="M171,6h-106a25.3,25.3,0,0,0-19.67,9.4L12.26,56.48A27.49,27.49,0,0,0,9,86.29a43.08,43.08,0,0,0,73.68,4.78,43.06,43.06,0,0,0,70.78,0,43.09,43.09,0,0,0,73.18-3.83,27.76,27.76,0,0,0-2.8-30.78L190.7,15.4A25.3,25.3,0,0,0,171,6Z" transform="translate(0 4)"/><path class="cls-5" d="M12.26,56.48A27.49,27.49,0,0,0,9,86.29a43.08,43.08,0,0,0,73.68,4.78,43.06,43.06,0,0,0,70.78,0,43.09,43.09,0,0,0,73.18-3.83,27.76,27.76,0,0,0-2.8-30.78Z" transform="translate(0 4)"/><g class="cls-6"><polyline class="cls-7" points="74.01 10 48.01 60.48 48.01 113.6"/><polyline class="cls-8" points="162.01 10 188.01 60.48 188.01 113.6"/><polyline class="cls-9" points="118.01 10 118.01 60.47 118.01 113.6"/></g><path class="cls-10" d="M171,6a25.3,25.3,0,0,1,19.67,9.4l33.11,41.06a27.76,27.76,0,0,1,2.8,30.78A43.23,43.23,0,0,1,214,101.46v68.19A28.35,28.35,0,0,1,185.66,198H50.35A28.34,28.34,0,0,1,22,169.65V101.42A43.16,43.16,0,0,1,9,86.29a27.49,27.49,0,0,1,3.29-29.81L45.38,15.4A25.3,25.3,0,0,1,65.05,6H171m0-6h-106A31.13,31.13,0,0,0,40.71,11.64L7.59,52.71A33.45,33.45,0,0,0,3.64,89.05,49.4,49.4,0,0,0,16,104.36v65.29A34.38,34.38,0,0,0,50.35,204H185.66A34.39,34.39,0,0,0,220,169.65V104.4a49.6,49.6,0,0,0,11.86-14.27,33.64,33.64,0,0,0-3.39-37.44l-33.11-41A31.13,31.13,0,0,0,171,0Z" transform="translate(0 4)"/></g></g></svg>