<svg xmlns="http://www.w3.org/2000/svg" xmlns:xlink="http://www.w3.org/1999/xlink" viewBox="0 0 234.99 235.5"><defs><style>.cls-1,.cls-3{fill:none;stroke-linecap:round;stroke-linejoin:round;stroke-width:15px;}.cls-1{stroke:url(#Dégradé_sans_nom_15);}.cls-2{fill:url(#Dégradé_sans_nom_5);}.cls-3{stroke:url(#Dégradé_sans_nom_15-2);}.cls-4{fill:url(#Dégradé_sans_nom_5-2);}.cls-5{fill:url(#Dégradé_sans_nom_5-3);}.cls-6{fill:url(#Dégradé_sans_nom_5-4);}.cls-7{fill:#f4f4f4;}</style><linearGradient id="Dégradé_sans_nom_15" x1="173.99" y1="50.5" x2="188.99" y2="50.5" gradientUnits="userSpaceOnUse"><stop offset="0" stop-color="#ffd550"/><stop offset="1" stop-color="#ffb900"/></linearGradient><linearGradient id="Dégradé_sans_nom_5" x1="117.49" y1="13.5" x2="117.49" y2="338.1" gradientUnits="userSpaceOnUse"><stop offset="0" stop-color="#00a096"/><stop offset="1" stop-color="#185a4c"/></linearGradient><linearGradient id="Dégradé_sans_nom_15-2" x1="5.99" y1="55.5" x2="228.99" y2="55.5" xlink:href="#Dégradé_sans_nom_15"/><linearGradient id="Dégradé_sans_nom_5-2" x1="117.49" y1="116.25" x2="117.49" y2="69.38" xlink:href="#Dégradé_sans_nom_5"/><linearGradient id="Dégradé_sans_nom_5-3" x1="117.49" y1="229.5" x2="117.49" y2="161.73" xlink:href="#Dégradé_sans_nom_5"/><linearGradient id="Dégradé_sans_nom_5-4" x1="174.41" y1="201.42" x2="174.41" y2="179.42" xlink:href="#Dégradé_sans_nom_5"/></defs><g id="Calque_2" data-name="Calque 2"><g id="Calque_2-2" data-name="Calque 2"><line class="cls-1" x1="181.49" y1="25.5" x2="181.49" y2="75.5"/><path class="cls-2" d="M213.49,91.5V201.15a28.34,28.34,0,0,1-28.34,28.35H49.84a28.35,28.35,0,0,1-28.35-28.35V91l96-77.54Z"/><polyline class="cls-3" points="13.49 97.5 117.49 13.5 221.49 97.5"/><circle class="cls-4" cx="117.49" cy="92.81" r="23.44"/><path class="cls-5" d="M104,161.73H131a6.53,6.53,0,0,1,6.53,6.53V229.5a0,0,0,0,1,0,0h-40a0,0,0,0,1,0,0V168.26A6.53,6.53,0,0,1,104,161.73Z"/><rect class="cls-6" x="163.41" y="179.42" width="22" height="22" rx="6.72"/><path class="cls-7" d="M117.49,6a7.52,7.52,0,0,1,4.72,1.67L174,49.49v-24a7.5,7.5,0,0,1,15,0V61.61l37.22,30.06a7.5,7.5,0,1,1-9.43,11.66l-3.29-2.65V201.15a28.34,28.34,0,0,1-28.34,28.35H49.84a28.35,28.35,0,0,1-28.35-28.35V100.68l-3.28,2.65A7.5,7.5,0,1,1,8.78,91.67l104-84A7.52,7.52,0,0,1,117.49,6m0-6A13.53,13.53,0,0,0,109,3L5,87a13.5,13.5,0,0,0,8.49,24,13.13,13.13,0,0,0,2-.15v90.3A34.39,34.39,0,0,0,49.84,235.5H185.15a34.38,34.38,0,0,0,34.34-34.35v-90.3A13.5,13.5,0,0,0,232,106a13.52,13.52,0,0,0-2-19L195,58.74V25.5a13.5,13.5,0,0,0-27,0V36.93L126,3a13.53,13.53,0,0,0-8.49-3Z"/></g></g></svg>