<svg xmlns="http://www.w3.org/2000/svg" xmlns:xlink="http://www.w3.org/1999/xlink" viewBox="0 0 238.48 248.84"><defs><style>.cls-1{fill:url(#Dégradé_sans_nom_11);}.cls-2{fill:url(#Dégradé_sans_nom_11-2);}.cls-3{fill:url(#Dégradé_sans_nom_9);}.cls-4{fill:url(#Dégradé_sans_nom_11-3);}.cls-5{fill:url(#Dégradé_sans_nom_11-4);}.cls-6{fill:url(#Dégradé_sans_nom_11-5);}.cls-10,.cls-11,.cls-12,.cls-7,.cls-8,.cls-9{fill:none;stroke-linecap:round;stroke-width:10px;}.cls-7,.cls-8,.cls-9{stroke-miterlimit:10;}.cls-7{stroke:url(#Dégradé_sans_nom_2);}.cls-8{stroke:url(#Dégradé_sans_nom_2-2);}.cls-9{stroke:url(#Dégradé_sans_nom_2-3);}.cls-10,.cls-11,.cls-12{stroke-linejoin:round;}.cls-10{stroke:url(#Dégradé_sans_nom_2-4);}.cls-11{stroke:url(#Dégradé_sans_nom_2-5);}.cls-12{stroke:url(#Dégradé_sans_nom_2-6);}.cls-13{fill:#f4f4f4;}.cls-14,.cls-15{fill:#1d1d1b;}.cls-14{opacity:0.2;}.cls-15{opacity:0.1;}</style><linearGradient id="Dégradé_sans_nom_11" x1="57.75" y1="143.31" x2="139.25" y2="143.31" gradientUnits="userSpaceOnUse"><stop offset="0" stop-color="#ffd550"/><stop offset="1" stop-color="#ffb900"/></linearGradient><linearGradient id="Dégradé_sans_nom_11-2" x1="139.25" y1="155.72" x2="177.75" y2="155.72" xlink:href="#Dégradé_sans_nom_11"/><linearGradient id="Dégradé_sans_nom_9" x1="57.75" y1="111.2" x2="177.75" y2="111.2" gradientUnits="userSpaceOnUse"><stop offset="0" stop-color="#ffb900"/><stop offset="1" stop-color="#ffd550"/></linearGradient><linearGradient id="Dégradé_sans_nom_11-3" x1="271.05" y1="614.28" x2="291.9" y2="614.28" gradientTransform="matrix(-0.5, 0.87, -0.58, -1, 615.14, 479.02)" xlink:href="#Dégradé_sans_nom_11"/><linearGradient id="Dégradé_sans_nom_11-4" x1="299.6" y1="614.28" x2="320.45" y2="614.28" gradientTransform="matrix(-0.5, 0.87, -0.58, -1, 654.01, 468.5)" xlink:href="#Dégradé_sans_nom_11"/><linearGradient id="Dégradé_sans_nom_11-5" x1="242.5" y1="614.28" x2="263.35" y2="614.28" gradientTransform="matrix(-0.5, 0.87, -0.58, -1, 576.28, 489.55)" xlink:href="#Dégradé_sans_nom_11"/><linearGradient id="Dégradé_sans_nom_2" x1="184.48" y1="189.49" x2="184.48" y2="22.71" gradientUnits="userSpaceOnUse"><stop offset="0" stop-color="#00a096"/><stop offset="1" stop-color="#185a4c"/></linearGradient><linearGradient id="Dégradé_sans_nom_2-2" x1="106.8" y1="242.84" x2="106.8" y2="179.49" xlink:href="#Dégradé_sans_nom_2"/><linearGradient id="Dégradé_sans_nom_2-3" x1="64.38" y1="162.78" x2="64.38" y2="19.34" xlink:href="#Dégradé_sans_nom_2"/><linearGradient id="Dégradé_sans_nom_2-4" x1="111.08" y1="42.69" x2="111.08" y2="6" xlink:href="#Dégradé_sans_nom_2"/><linearGradient id="Dégradé_sans_nom_2-5" x1="156.77" y1="1254.59" x2="156.77" y2="1217.9" gradientTransform="translate(-967.71 938.78) rotate(-119.69)" xlink:href="#Dégradé_sans_nom_2"/><linearGradient id="Dégradé_sans_nom_2-6" x1="-705.97" y1="735.51" x2="-705.97" y2="698.82" gradientTransform="translate(480.68 1148.66) rotate(120)" xlink:href="#Dégradé_sans_nom_2"/></defs><g id="Calque_2" data-name="Calque 2"><g id="Calque_2-2" data-name="Calque 2"><path class="cls-1" d="M57.75,98.79v39.78a5.15,5.15,0,0,0,2.6,4.5l76.3,44.06a5.24,5.24,0,0,0,2.6.69V148Z"/><path class="cls-2" d="M177.75,123.62V163.4a5.15,5.15,0,0,1-2.6,4.5l-33.3,19.23a5.22,5.22,0,0,1-2.6.69V148Z"/><path class="cls-3" d="M60.35,94.29l33.3-19.23a5.19,5.19,0,0,1,5.2,0l76.3,44.05a5.2,5.2,0,0,1,0,9l-33.3,19.22a5.19,5.19,0,0,1-5.2,0l-76.3-44A5.19,5.19,0,0,1,60.35,94.29Z"/><ellipse class="cls-4" cx="117.75" cy="111.2" rx="7.35" ry="12.73" transform="translate(5.91 228.35) rotate(-89.69)"/><ellipse class="cls-5" cx="142.48" cy="125.48" rx="7.35" ry="12.73" transform="translate(16.23 267.27) rotate(-89.69)"/><ellipse class="cls-6" cx="93.02" cy="96.93" rx="7.35" ry="12.73" transform="translate(-4.41 189.42) rotate(-89.69)"/><path class="cls-7" d="M210.21,184.49A106.82,106.82,0,0,0,144.45,27.71"/><path class="cls-8" d="M25.29,184.49a106.78,106.78,0,0,0,163,26.71"/><path class="cls-9" d="M117.75,24.34A106.85,106.85,0,0,0,14.36,157.78"/><polyline class="cls-10" points="104.41 11 117.75 24.34 104.41 37.69"/><polyline class="cls-11" points="20.31 202.69 25.29 184.49 43.49 189.47"/><polyline class="cls-12" points="227.48 179.59 209.25 184.47 204.37 166.24"/><path class="cls-13" d="M96.25,74.36a5.26,5.26,0,0,1,2.6.7l76.3,44.05a5.17,5.17,0,0,1,2.6,4.51V163.4a5.15,5.15,0,0,1-2.6,4.5l-33.3,19.23a5.24,5.24,0,0,1-5.2,0l-76.3-44.06a5.15,5.15,0,0,1-2.6-4.5V98.79a5.15,5.15,0,0,1,2.6-4.5l33.3-19.23a5.23,5.23,0,0,1,2.6-.7m0-6a11.24,11.24,0,0,0-5.6,1.5L57.35,89.09a11.07,11.07,0,0,0-5.6,9.7v39.78a11.07,11.07,0,0,0,5.6,9.7l76.3,44a11.2,11.2,0,0,0,11.2,0l33.3-19.22a11.09,11.09,0,0,0,5.6-9.7V123.62a11.07,11.07,0,0,0-5.6-9.7l-76.3-44.06a11.24,11.24,0,0,0-5.6-1.5Z"/><path class="cls-13" d="M25.54,179.49h.08a4.66,4.66,0,0,1,1,.16h0l18.2,5a5,5,0,0,1-1.31,9.82,5.07,5.07,0,0,1-1.33-.18l-5.28-1.45A101.74,101.74,0,0,0,185,207.45a5,5,0,0,1,6.61,7.51A111.77,111.77,0,0,1,27.17,196.55l-2,7.46a5,5,0,1,1-9.64-2.64l5-18.2a2,2,0,0,1,.1-.26,4,4,0,0,1,.25-.65,4.5,4.5,0,0,1,.25-.41,3.54,3.54,0,0,1,.26-.41,5.23,5.23,0,0,1,.39-.42,2.54,2.54,0,0,1,.28-.29,4.76,4.76,0,0,1,.68-.5l.11-.07h0a5.34,5.34,0,0,1,.91-.42,2,2,0,0,0,.26-.06,5.67,5.67,0,0,1,.69-.15,3,3,0,0,1,.42,0h.15l.32,0m0-6-.47,0a8.32,8.32,0,0,0-1.18.07,11.16,11.16,0,0,0-1.36.27,7.46,7.46,0,0,0-.74.21,11.75,11.75,0,0,0-1.56.66l-.08,0-.38.22a5.29,5.29,0,0,0-.46.3,10.5,10.5,0,0,0-1.27.95,8.22,8.22,0,0,0-.66.65h0a8.75,8.75,0,0,0-.79.9,7,7,0,0,0-.59.88,9.17,9.17,0,0,0-.55.94,9.66,9.66,0,0,0-.5,1.23,6.37,6.37,0,0,0-.26.75l-5,18.2a11,11,0,0,0,19.69,9.11,117.73,117.73,0,0,0,166.19,10.57A11,11,0,1,0,181,203a95.7,95.7,0,0,1-131.25-4.46,11,11,0,0,0-3.38-19.63l-18.2-5-.44-.12-.1,0a13,13,0,0,0-1.63-.23l-.49,0Z"/><path class="cls-13" d="M104.41,6a5,5,0,0,1,3.53,1.46l13.34,13.35a5.09,5.09,0,0,1,.63.76c.08.12.14.26.21.39a5.19,5.19,0,0,1,.25.47,5,5,0,0,1,.16.51c0,.14.09.28.12.42a5,5,0,0,1,0,2c0,.15-.08.28-.12.42a4.48,4.48,0,0,1-.16.52c-.07.16-.17.31-.25.47s-.13.26-.21.39a5.09,5.09,0,0,1-.63.76L107.94,41.22a5,5,0,0,1-7.07,0,5,5,0,0,1,0-7.07l4-4A101.84,101.84,0,0,0,19.21,156.54a5,5,0,0,1-3.6,6.08,4.93,4.93,0,0,1-1.25.16A5,5,0,0,1,9.52,159a111.86,111.86,0,0,1,96.75-139.1l-5.4-5.39A5,5,0,0,1,104.41,6m0-6a11,11,0,0,0-11,11,10.87,10.87,0,0,0,1,4.66A117.87,117.87,0,0,0,3.71,160.52a11,11,0,0,0,10.65,8.26,10.71,10.71,0,0,0,2.76-.35A11,11,0,0,0,25,155,95.86,95.86,0,0,1,93.43,38.47a11,11,0,0,0,18.75,7l13.35-13.35a11.19,11.19,0,0,0,1.37-1.67,8.29,8.29,0,0,0,.5-.87h0a8.21,8.21,0,0,0,.51-1,10.12,10.12,0,0,0,.36-1.09h0c.06-.2.17-.54.26-1a11.16,11.16,0,0,0,0-4.31c-.09-.44-.21-.79-.26-1h0a8.83,8.83,0,0,0-.36-1.08,7.8,7.8,0,0,0-.51-1h0a8.92,8.92,0,0,0-.5-.87,11.22,11.22,0,0,0-1.38-1.68L112.18,3.22A10.9,10.9,0,0,0,104.41,0Z"/><path class="cls-13" d="M144.45,22.71a4.93,4.93,0,0,1,1.25.16,111.81,111.81,0,0,1,74.2,153.57l6.28-1.69a5.34,5.34,0,0,1,1.3-.17,5,5,0,0,1,1.29,9.84L213,188.65a5,5,0,0,1-2.75.84c-.2,0-.4,0-.61,0l-.34,0a5,5,0,0,1-4.83-3.71l-4.88-18.22a5,5,0,0,1,3.53-6.13,5.27,5.27,0,0,1,1.3-.17A5,5,0,0,1,209.2,165l1.82,6.82A101.79,101.79,0,0,0,143.21,32.55a5,5,0,0,1,1.24-9.84m0-6h0a11,11,0,0,0-2.74,21.65A95.84,95.84,0,0,1,210,156.8a10.91,10.91,0,0,0-5.63-1.56,11.35,11.35,0,0,0-2.84.37,11,11,0,0,0-7.79,13.48l4.88,18.23a11,11,0,0,0,10.63,8.15h.27l.68,0a11,11,0,0,0,5.06-1.24l15.06-4a11,11,0,0,0-1-21.47,118.92,118.92,0,0,0,6.18-37.65,117.68,117.68,0,0,0-88.3-114,11.15,11.15,0,0,0-2.75-.35Z"/><polygon class="cls-14" points="62.95 144.33 60.35 142.83 60.35 103.29 62.95 104.79 62.95 144.33"/><polygon class="cls-14" points="136.65 186.88 134.05 185.38 134.05 145.84 136.65 147.34 136.65 186.88"/><polygon class="cls-14" points="124.37 179.79 121.77 178.29 121.77 138.75 124.37 140.25 124.37 179.79"/><polygon class="cls-14" points="112.08 172.69 109.48 171.19 109.48 131.66 112.08 133.16 112.08 172.69"/><polygon class="cls-14" points="99.8 165.6 97.2 164.1 97.2 124.57 99.8 126.07 99.8 165.6"/><polygon class="cls-14" points="87.52 158.51 84.92 157.01 84.92 117.48 87.52 118.98 87.52 158.51"/><polygon class="cls-14" points="75.23 151.42 72.63 149.92 72.63 110.38 75.23 111.88 75.23 151.42"/><polygon class="cls-14" points="177.75 131.81 177.75 134.82 139.25 156.38 139.25 154.04 177.75 131.81"/><polygon class="cls-14" points="177.75 145.34 177.75 148.34 139.25 169.9 139.25 167.56 177.75 145.34"/><polygon class="cls-14" points="177.75 158.86 177.75 161.87 139.25 183.43 139.25 181.09 177.75 158.86"/><ellipse class="cls-15" cx="117.75" cy="111.2" rx="7.35" ry="12.73" transform="translate(5.91 228.35) rotate(-89.69)"/><ellipse class="cls-15" cx="142.48" cy="125.48" rx="7.35" ry="12.73" transform="translate(16.23 267.27) rotate(-89.69)"/><ellipse class="cls-15" cx="93.02" cy="96.93" rx="7.35" ry="12.73" transform="translate(-4.41 189.42) rotate(-89.69)"/></g></g></svg>