<svg xmlns="http://www.w3.org/2000/svg" xmlns:xlink="http://www.w3.org/1999/xlink" viewBox="0 0 236 208.01"><defs><style>.cls-1{fill:url(#Dégradé_sans_nom_2);}.cls-2{fill:url(#Dégradé_sans_nom_2-2);}.cls-3{fill:url(#Dégradé_sans_nom_2-3);}.cls-4{fill:url(#Dégradé_sans_nom_464);}.cls-5{fill:url(#Dégradé_sans_nom_28);}.cls-6{fill:url(#Dégradé_sans_nom_2-4);}.cls-7{fill:url(#Dégradé_sans_nom_2-5);}.cls-8,.cls-9{opacity:0.45;}.cls-9{fill:#fff;}.cls-10{fill:url(#Dégradé_sans_nom_2-6);}.cls-11{fill:url(#Dégradé_sans_nom_2-7);}.cls-12{fill:url(#Dégradé_sans_nom_2-8);}.cls-13{fill:url(#Dégradé_sans_nom_2-9);}.cls-14{fill:url(#Dégradé_sans_nom_2-10);}.cls-15{fill:url(#Dégradé_sans_nom_2-11);}.cls-16{fill:url(#Dégradé_sans_nom_2-12);}.cls-17{fill:url(#Dégradé_sans_nom_2-13);}.cls-18{fill:url(#Dégradé_sans_nom_2-14);}.cls-19{fill:url(#Dégradé_sans_nom_2-15);}.cls-20{fill:url(#Dégradé_sans_nom_2-16);}.cls-21{fill:url(#Dégradé_sans_nom_2-17);}.cls-22{fill:#f4f4f4;}</style><linearGradient id="Dégradé_sans_nom_2" x1="6" y1="156.5" x2="118" y2="156.5" gradientUnits="userSpaceOnUse"><stop offset="0" stop-color="#00a096"/><stop offset="1" stop-color="#185a4c"/></linearGradient><linearGradient id="Dégradé_sans_nom_2-2" x1="118" y1="156.5" x2="230" y2="156.5" xlink:href="#Dégradé_sans_nom_2"/><linearGradient id="Dégradé_sans_nom_2-3" x1="6" y1="110.98" x2="230" y2="110.98" xlink:href="#Dégradé_sans_nom_2"/><linearGradient id="Dégradé_sans_nom_464" x1="143.61" y1="113.2" x2="99.83" y2="113.2" gradientUnits="userSpaceOnUse"><stop offset="0" stop-color="#ffb900"/><stop offset="1" stop-color="#ffd550"/></linearGradient><linearGradient id="Dégradé_sans_nom_28" x1="119.22" y1="41.98" x2="192.33" y2="84.91" gradientUnits="userSpaceOnUse"><stop offset="0" stop-color="#ffd550"/><stop offset="1" stop-color="#ffb900"/></linearGradient><linearGradient id="Dégradé_sans_nom_2-4" x1="81.29" y1="69.66" x2="81.29" y2="145.68" xlink:href="#Dégradé_sans_nom_2"/><linearGradient id="Dégradé_sans_nom_2-5" x1="76.7" y1="116.78" x2="76.7" y2="74.83" xlink:href="#Dégradé_sans_nom_2"/><linearGradient id="Dégradé_sans_nom_2-6" x1="120.44" y1="85.36" x2="149.21" y2="85.36" xlink:href="#Dégradé_sans_nom_2"/><linearGradient id="Dégradé_sans_nom_2-7" x1="149.21" y1="90.96" x2="158.59" y2="90.96" xlink:href="#Dégradé_sans_nom_2"/><linearGradient id="Dégradé_sans_nom_2-8" x1="120.44" y1="77.54" x2="158.59" y2="77.54" xlink:href="#Dégradé_sans_nom_2"/><linearGradient id="Dégradé_sans_nom_2-9" x1="166.84" y1="91.04" x2="172.65" y2="91.04" xlink:href="#Dégradé_sans_nom_2"/><linearGradient id="Dégradé_sans_nom_2-10" x1="172.65" y1="91.04" x2="178.46" y2="91.04" xlink:href="#Dégradé_sans_nom_2"/><linearGradient id="Dégradé_sans_nom_2-11" x1="166.84" y1="74.37" x2="178.46" y2="74.37" xlink:href="#Dégradé_sans_nom_2"/><linearGradient id="Dégradé_sans_nom_2-12" x1="129.74" y1="67.32" x2="137.9" y2="67.32" xlink:href="#Dégradé_sans_nom_2"/><linearGradient id="Dégradé_sans_nom_2-13" x1="137.9" y1="67.32" x2="146.06" y2="67.32" xlink:href="#Dégradé_sans_nom_2"/><linearGradient id="Dégradé_sans_nom_2-14" x1="129.74" y1="60.52" x2="146.06" y2="60.52" xlink:href="#Dégradé_sans_nom_2"/><linearGradient id="Dégradé_sans_nom_2-15" x1="152.88" y1="57.68" x2="161.04" y2="57.68" xlink:href="#Dégradé_sans_nom_2"/><linearGradient id="Dégradé_sans_nom_2-16" x1="161.04" y1="59.1" x2="164.3" y2="59.1" xlink:href="#Dégradé_sans_nom_2"/><linearGradient id="Dégradé_sans_nom_2-17" x1="152.88" y1="52.3" x2="164.3" y2="52.3" xlink:href="#Dégradé_sans_nom_2"/></defs><g id="Calque_2" data-name="Calque 2"><g id="Calque_2-2" data-name="Calque 2"><path class="cls-1" d="M6,111v20a15,15,0,0,0,7.56,13.1L110.44,200a15.11,15.11,0,0,0,7.56,2V182Z"/><path class="cls-2" d="M230,111v20a15,15,0,0,1-7.56,13.1L125.56,200a15.11,15.11,0,0,1-7.56,2V182Z"/><path class="cls-3" d="M13.56,97.88,110.44,42a15.12,15.12,0,0,1,15.12,0l96.88,55.93a15.13,15.13,0,0,1,0,26.2L125.56,180a15.12,15.12,0,0,1-15.12,0L13.56,124.08A15.13,15.13,0,0,1,13.56,97.88Z"/><polygon class="cls-4" points="43.92 112.2 117.47 72.25 192.74 112.2 118 154.15 43.92 112.2"/><polygon class="cls-5" points="192.74 53.85 117.47 10.39 117.47 72.25 192.74 112.2 192.74 53.85"/><polygon class="cls-6" points="118.66 96.46 118 154.15 43.92 112.2 43.92 53.31 118.66 96.46"/><polygon class="cls-7" points="64.24 74.83 89.15 88.59 89.15 116.78 64.24 102.36 64.24 74.83"/><polygon class="cls-8" points="64.24 102.36 66.86 101.05 66.86 76.28 64.24 74.83 64.24 102.36"/><polygon class="cls-9" points="89.15 113.31 66.86 101.05 64.24 102.36 89.15 116.78 89.15 113.31"/><path class="cls-10" d="M120.44,71.94v9.7a1.25,1.25,0,0,0,.63,1.09l27.5,15.88a1.23,1.23,0,0,0,.64.17V89.09Z"/><path class="cls-11" d="M158.59,83.14v9.69a1.25,1.25,0,0,1-.64,1.1l-8.11,4.68a1.22,1.22,0,0,1-.63.17V89.09Z"/><path class="cls-12" d="M121.07,70.85l8.12-4.69a1.24,1.24,0,0,1,1.26,0L158,82a1.26,1.26,0,0,1,0,2.19l-8.11,4.69a1.3,1.3,0,0,1-1.27,0L121.07,73A1.27,1.27,0,0,1,121.07,70.85Z"/><path class="cls-13" d="M166.84,74.37V104a.76.76,0,0,0,.4.68l5,2.9a.79.79,0,0,0,.39.11V78.05Z"/><path class="cls-14" d="M178.46,74.37V104a.77.77,0,0,1-.39.68l-5,2.9a.77.77,0,0,1-.39.11V78.05Z"/><path class="cls-15" d="M167.24,73.69l5-2.9a.78.78,0,0,1,.78,0l5,2.9a.79.79,0,0,1,0,1.36L173,78a.78.78,0,0,1-.78,0l-5-2.9A.78.78,0,0,1,167.24,73.69Z"/><path class="cls-16" d="M129.74,60.52V69a1.1,1.1,0,0,0,.55,1L137.35,74a1.08,1.08,0,0,0,.55.15V65.7Z"/><path class="cls-17" d="M146.06,60.52V69a1.1,1.1,0,0,1-.55,1L138.45,74a1.08,1.08,0,0,1-.55.15V65.7Z"/><path class="cls-18" d="M130.29,59.56l7.06-4.07a1.08,1.08,0,0,1,1.1,0l7.06,4.07a1.1,1.1,0,0,1,0,1.91l-7.06,4.08a1.08,1.08,0,0,1-1.1,0l-7.06-4.08A1.1,1.1,0,0,1,130.29,59.56Z"/><path class="cls-19" d="M152.88,50.88v8.43a1.1,1.1,0,0,0,.55,1l7.06,4.07a1.08,1.08,0,0,0,.55.15V56.06Z"/><path class="cls-20" d="M164.3,53.71v8.44a1.09,1.09,0,0,1-.56,1l-2.15,1.24a1.08,1.08,0,0,1-.55.15V56.06Z"/><path class="cls-21" d="M153.43,49.92l2.15-1.24a1.13,1.13,0,0,1,1.1,0l7.06,4.08a1.1,1.1,0,0,1,0,1.91l-2.15,1.24a1.08,1.08,0,0,1-1.1,0l-7.06-4.08A1.11,1.11,0,0,1,153.43,49.92Z"/><path class="cls-22" d="M117.47,10.39l75.27,43.46V80.73l29.7,17.15A15,15,0,0,1,230,111v20a15,15,0,0,1-7.56,13.1L125.56,200a15.16,15.16,0,0,1-15.12,0L13.56,144.06A15,15,0,0,1,6,131V111a15,15,0,0,1,7.56-13.1L43.92,80.35v-27L67.34,66.83,110.44,42a15.12,15.12,0,0,1,7-2V10.39M111.47,0V35a21.7,21.7,0,0,0-4,1.79L67.34,59.9,46.92,48.12l-9-5.2v34L10.56,92.68A20.92,20.92,0,0,0,0,111v20a20.89,20.89,0,0,0,10.56,18.29l96.88,55.93a21.12,21.12,0,0,0,21.12,0l96.88-55.93A20.89,20.89,0,0,0,236,131V111a20.92,20.92,0,0,0-10.56-18.3l-26.7-15.41V50.39l-3-1.74L120.47,5.2l-9-5.2Z"/></g></g></svg>