<svg xmlns="http://www.w3.org/2000/svg" xmlns:xlink="http://www.w3.org/1999/xlink" viewBox="0 0 229.15 229.16"><defs><style>.cls-1{fill:url(#Dégradé_sans_nom_13);}.cls-2{fill:url(#Dégradé_sans_nom_470);}.cls-3{fill:url(#Dégradé_sans_nom_470-2);}.cls-4{fill:url(#Dégradé_sans_nom_11);}.cls-5{fill:url(#Dégradé_sans_nom_467);}.cls-6{fill:#f4f4f4;}</style><linearGradient id="Dégradé_sans_nom_13" x1="5.99" y1="114.58" x2="223.15" y2="114.58" gradientUnits="userSpaceOnUse"><stop offset="0" stop-color="#185a4c"/><stop offset="1" stop-color="#00a096"/></linearGradient><linearGradient id="Dégradé_sans_nom_470" x1="23.93" y1="117.68" x2="199.02" y2="117.68" gradientUnits="userSpaceOnUse"><stop offset="0" stop-color="#00a096"/><stop offset="1" stop-color="#185a4c"/></linearGradient><linearGradient id="Dégradé_sans_nom_470-2" x1="203.62" y1="25.53" x2="211.3" y2="17.85" xlink:href="#Dégradé_sans_nom_470"/><linearGradient id="Dégradé_sans_nom_11" x1="64.31" y1="114.92" x2="168.34" y2="114.92" gradientUnits="userSpaceOnUse"><stop offset="0" stop-color="#ffd550"/><stop offset="1" stop-color="#ffb900"/></linearGradient><linearGradient id="Dégradé_sans_nom_467" x1="67.08" y1="114.92" x2="165.48" y2="114.92" gradientUnits="userSpaceOnUse"><stop offset="0" stop-color="#ffb900"/><stop offset="1" stop-color="#ffd550"/></linearGradient></defs><g id="Calque_2" data-name="Calque 2"><g id="Calque_2-2" data-name="Calque 2"><path class="cls-1" d="M206.64,6H118a16.51,16.51,0,0,0-11.67,4.83l-95.5,95.5a16.51,16.51,0,0,0,0,23.34l88.66,88.66a16.51,16.51,0,0,0,23.34,0l95.5-95.5a16.51,16.51,0,0,0,4.83-11.67V22.51A16.51,16.51,0,0,0,206.64,6Z"/><path class="cls-2" d="M185.71,30.13H114.23a13.28,13.28,0,0,0-9.41,3.9l-77,77a13.31,13.31,0,0,0,0,18.83l71.48,71.48a13.32,13.32,0,0,0,18.82,0l77-77a13.28,13.28,0,0,0,3.9-9.41V43.44A13.31,13.31,0,0,0,185.71,30.13Z"/><circle class="cls-3" cx="207.46" cy="21.69" r="5.44"/><path class="cls-4" d="M114.48,145.16l6.41,16.22c-13.88,9.18-33.74,6.62-45.37-5-15.16-15.16-14.95-37.16.64-52.74l.64-.64L66.34,92.52l14.73-4.91,5.55,5.55,6.83-6.83L83,75.87,97.72,71l5.55,5.55L105,74.8c15.7-15.69,37.58-15.8,52.74-.64,11.64,11.64,14.31,31.39,5,45.37L146.62,113c7.47-7.47,6.62-20.07-.54-27.22-8.75-8.76-20.17-8.44-29.35.75L115,88.25l22.84,22.85-14.62,5-18-18-6.84,6.83,22.85,22.84-14.63,5-18-18-.64.64c-9.18,9.18-9.39,20.5-.64,29.25C94.41,151.77,107,152.63,114.48,145.16Z"/><path class="cls-4" d="M114.48,145.16l6.41,16.22c-13.88,9.18-33.74,6.62-45.37-5-15.16-15.16-14.95-37.16.64-52.74l.64-.64L66.34,92.52l14.73-4.91,5.55,5.55,6.83-6.83L83,75.87,97.72,71l5.55,5.55L105,74.8c15.7-15.69,37.58-15.8,52.74-.64,11.64,11.64,14.31,31.39,5,45.37L146.62,113c7.47-7.47,6.62-20.07-.54-27.22-8.75-8.76-20.17-8.44-29.35.75L115,88.25l22.84,22.85-14.62,5-18-18-6.84,6.83,22.85,22.84-14.63,5-18-18-.64.64c-9.18,9.18-9.39,20.5-.64,29.25C94.41,151.77,107,152.63,114.48,145.16Z"/><path class="cls-5" d="M101.78,164.1a34.43,34.43,0,0,1-24.26-9.74c-14.16-14.16-13.89-34.19.64-48.73l.64-.64a2.83,2.83,0,0,0,0-4l-7.22-7.22,8.72-2.9,4.32,4.31a2.82,2.82,0,0,0,4,0l6.84-6.83a2.85,2.85,0,0,0,0-4l-7.22-7.22L97,74.2l4.31,4.32a2.84,2.84,0,0,0,4,0L107,76.81c7.13-7.14,16-11.06,24.9-11.06,8.64,0,17.11,3.7,23.83,10.42,10.36,10.36,12.74,27.42,5.85,39.83l-10.34-4.17a22.66,22.66,0,0,0-3.14-28c-4.7-4.7-10.26-7.18-16.07-7.18-6.13,0-12.11,2.74-17.3,7.93L113,86.25a2.84,2.84,0,0,0,0,4l19.64,19.63-8.66,3L107.2,96.07a2.84,2.84,0,0,0-4,0l-6.83,6.83a2.84,2.84,0,0,0,0,4L116,126.55l-8.65,3-16.79-16.8a2.84,2.84,0,0,0-4,0l-.64.64c-10.3,10.3-10.55,23.36-.64,33.27a23,23,0,0,0,16.2,6.59,21.38,21.38,0,0,0,11.8-3.44l4.12,10.42A32.06,32.06,0,0,1,101.78,164.1Z"/><path class="cls-6" d="M206.64,6a16.51,16.51,0,0,1,16.51,16.51v88.65a16.51,16.51,0,0,1-4.83,11.67l-95.5,95.5a16.51,16.51,0,0,1-23.34,0L10.82,129.67a16.51,16.51,0,0,1,0-23.34l95.5-95.5A16.51,16.51,0,0,1,118,6h88.65m0-6H118a22.39,22.39,0,0,0-15.92,6.59L6.58,102.08a22.55,22.55,0,0,0,0,31.84l88.66,88.65a22.51,22.51,0,0,0,31.83,0l95.49-95.49a22.38,22.38,0,0,0,6.59-15.92V22.51A22.54,22.54,0,0,0,206.64,0Z"/></g></g></svg>