<svg xmlns="http://www.w3.org/2000/svg" xmlns:xlink="http://www.w3.org/1999/xlink" viewBox="0 0 235.83 236"><defs><style>.cls-1,.cls-2,.cls-3,.cls-5{fill:none;stroke-linecap:round;stroke-linejoin:round;stroke-width:10px;}.cls-1{stroke:url(#Dégradé_sans_nom_4);}.cls-2{stroke:url(#Dégradé_sans_nom_4-2);}.cls-3{stroke:url(#Dégradé_sans_nom_4-3);}.cls-4{fill:#00a096;}.cls-5{stroke:url(#Dégradé_sans_nom_4-4);}.cls-6{fill:#fff;}.cls-7{fill:#383838;}.cls-8{fill:url(#Dégradé_sans_nom_5);}.cls-9{fill:#f4f4f4;}</style><linearGradient id="Dégradé_sans_nom_4" x1="208.49" y1="114.89" x2="229.99" y2="114.89" gradientTransform="translate(-25.5 -21.44) rotate(-15.84)" gradientUnits="userSpaceOnUse"><stop offset="0" stop-color="#ffc93e"/><stop offset="1" stop-color="#ffb900"/></linearGradient><linearGradient id="Dégradé_sans_nom_4-2" x1="195.79" y1="123.56" x2="217.3" y2="123.56" xlink:href="#Dégradé_sans_nom_4"/><linearGradient id="Dégradé_sans_nom_4-3" x1="157.79" y1="122.12" x2="226.42" y2="122.12" xlink:href="#Dégradé_sans_nom_4"/><linearGradient id="Dégradé_sans_nom_4-4" x1="125.94" y1="159.58" x2="174.79" y2="159.58" xlink:href="#Dégradé_sans_nom_4"/><linearGradient id="Dégradé_sans_nom_5" x1="41.88" y1="135.03" x2="153.19" y2="135.03" gradientUnits="userSpaceOnUse"><stop offset="0" stop-color="#00a096"/><stop offset="1" stop-color="#185a4c"/></linearGradient></defs><g id="Calque_2" data-name="Calque 2"><g id="Calque_2-2" data-name="Calque 2"><line class="cls-1" x1="224.44" y1="35.21" x2="209.1" y2="23.3"/><line class="cls-2" x1="214.59" y1="47.02" x2="199.25" y2="35.11"/><line class="cls-3" x1="170.32" y1="72.36" x2="214.96" y2="14.88"/><path class="cls-4" d="M112,147.78s27.66,24,55.62,20.8,57.1-45.38,57.1-45.38l-10.51-6.5s-37,31.33-50.33,29.49-39.68-32.79-50.71-35.44a200.36,200.36,0,0,0-32.2-4.68c-12.69,11-45.51,6.42-45.51,6.42s-8.71,16-6.87,44c1.08,16.52,9.21,39.13,15.69,54.91a113.11,113.11,0,0,0,107.61,9.06C121.67,181.78,112,147.78,112,147.78Z"/><circle class="cls-5" cx="162.71" cy="91.05" r="19.43"/><circle class="cls-6" cx="52.51" cy="69.6" r="32.85"/><path class="cls-7" d="M6.35,66.1c2.44,15.17,17,26.08,20.57,24.08,2.5-1.42-2.19-8.41,1.13-18.45.62-1.87,4.2-11.94,12.73-15.14C50,53.13,55.22,61.35,67.3,59.22c.75-.13,11.07-2.08,16.85-10.2,11.17-15.68-2.46-43.34-9-43-3.82.19-2.3,9.92-10.51,15.49-8.73,5.93-16-1.24-30.28,3.4A41.05,41.05,0,0,0,15.66,38C13.26,40.94,4.09,52.09,6.35,66.1Z"/><path class="cls-8" d="M41.88,124.47s55.65,16,105.3-23.35l6,12.56s-19,22.13-51.73,36C75,160.91,44.11,168.93,44.11,168.93"/><circle class="cls-6" cx="220.19" cy="118" r="9.64"/><circle class="cls-6" cx="149.96" cy="106.35" r="9.64"/><path class="cls-9" d="M75.31,6c6.54,0,19.94,27.43,8.84,43a22.48,22.48,0,0,1-3.42,3.75A32.85,32.85,0,0,1,26.92,90.18a2.14,2.14,0,0,1-1.05.23c-4.73,0-17.28-10.35-19.52-24.31S13.26,40.94,15.66,38A41.05,41.05,0,0,1,34.41,24.89a32.84,32.84,0,0,1,10.43-1.67c4.34,0,8,.76,11.38.76a14.23,14.23,0,0,0,8.47-2.49C72.9,15.92,71.38,6.19,75.2,6h.11m0-6H74.9c-5.72.28-7.51,5.48-8.57,8.59-1,2.9-2,5.91-5,7.93A8.25,8.25,0,0,1,56.22,18c-1.3,0-2.74-.15-4.41-.32a69.22,69.22,0,0,0-7-.44,39,39,0,0,0-12.29,2A46.63,46.63,0,0,0,11,34.2C0,47.56-.8,59.44.42,67.05A40.25,40.25,0,0,0,10.77,87.57c1.76,1.9,7.61,7.76,13.51,8.71A38.85,38.85,0,0,0,88,53.83c.36-.44.69-.88,1-1.33,8.87-12.45,5.4-29.7-.26-40.69C86,6.42,81.41,0,75.31,0Z"/><path class="cls-9" d="M215,9.88a5,5,0,0,1,3.06,1,5,5,0,0,1,.88,7l-3.22,4.14,11.82,9.17a5,5,0,0,1-6.14,7.9L209.56,30l-3.29,4.24,11.39,8.85A5,5,0,0,1,211.53,51l-11.4-8.84-22.8,29.36.36.27a24.42,24.42,0,0,1-22.32,42.57,9.65,9.65,0,0,1-4.25,1.59,140.5,140.5,0,0,1-13.93,12.48c9.78,8.43,19.9,16.86,26.64,17.79a9.14,9.14,0,0,0,1.19.08c11.46,0,36.47-19.3,45.66-26.72a9.82,9.82,0,0,1-.14-1.55,9.65,9.65,0,1,1,10.92,9.55c-8.31,10.85-31.48,38.46-53.89,41a46.31,46.31,0,0,1-5.25.29c-26.07,0-50.37-21.09-50.37-21.09s9.72,34,39.89,72.68A113.11,113.11,0,0,1,44.23,211.4C37.75,195.62,29.62,173,28.54,156.49c-1.84-28,6.87-44,6.87-44a123.3,123.3,0,0,0,15.37,1c10.31,0,23.22-1.37,30.14-7.37a200.36,200.36,0,0,1,32.2,4.68c2.5.6,5.8,2.66,9.55,5.51a121.64,121.64,0,0,0,17.65-10.07,9.69,9.69,0,0,1,.8-3.7,24.43,24.43,0,0,1,21.61-35.86,24.11,24.11,0,0,1,5.27.58L195.3,32h0L211,11.81a5,5,0,0,1,4-1.93M149.46,96.73l.5,0a9.64,9.64,0,0,1,9.55,8.38,14.42,14.42,0,0,0,12.05-25.44h0a14.43,14.43,0,0,0-23.16,13.2,14.11,14.11,0,0,0,1.06,3.88M215,3.88h0a11,11,0,0,0-8.7,4.25L190.82,28l0,0-.25.34L165.41,60.75c-.89-.08-1.78-.12-2.68-.12a30.41,30.41,0,0,0-30.21,34.21,30.83,30.83,0,0,0,2.11,7.94,117.11,117.11,0,0,1-11.34,6.52,27.44,27.44,0,0,0-8.77-4.39,204,204,0,0,0-33.3-4.83l-2.4-.12L77,101.54c-4.39,3.8-13.7,5.9-26.21,5.9a121,121,0,0,1-14.54-.89L32.12,106l-2,3.65c-.39.71-9.52,17.9-7.59,47.25,1.13,17.24,9.39,40.4,16.13,56.8l.7,1.71,1.55,1A119.09,119.09,0,0,0,154.25,226l7.06-3.1-4.74-6.08a257.57,257.57,0,0,1-32.13-53.19c10,5.65,23.59,11.29,37.88,11.29a52.64,52.64,0,0,0,5.93-.33c23.43-2.69,46.56-28.77,56.65-41.64a15.63,15.63,0,1,0-20.3-16.16C186.73,130.89,171,140.27,165,140.27l-.37,0c-4.08-.56-11.84-6.54-18.12-11.78,3.14-2.72,5.68-5.13,7.59-7a14.07,14.07,0,0,0,2-.69,29.89,29.89,0,0,0,6.58.73,30.43,30.43,0,0,0,22.77-50.64l15.74-20.27,6.66,5.16a11,11,0,0,0,17.7-9.55,11,11,0,0,0,5.64-19.63L224.09,21A11,11,0,0,0,215,3.88ZM154.29,91.32a8.43,8.43,0,1,1,9.65,8.05,15.76,15.76,0,0,0-9.65-8.05Z"/></g></g></svg>