<svg xmlns="http://www.w3.org/2000/svg" xmlns:xlink="http://www.w3.org/1999/xlink" viewBox="0 0 245.32 244.48"><defs><style>.cls-1{fill:url(#Dégradé_sans_nom_465);}.cls-2{fill:url(#Dégradé_sans_nom_465-2);}.cls-3{fill:url(#Dégradé_sans_nom_11);}.cls-4{fill:url(#Dégradé_sans_nom_465-3);}.cls-5{fill:#f4f4f4;}</style><linearGradient id="Dégradé_sans_nom_465" x1="1291.27" y1="-274.91" x2="1291.27" y2="-172.57" gradientTransform="matrix(-0.71, 0.71, 0.71, 0.71, 1246.61, -580.36)" gradientUnits="userSpaceOnUse"><stop offset="0" stop-color="#00a096"/><stop offset="1" stop-color="#185a4c"/></linearGradient><linearGradient id="Dégradé_sans_nom_465-2" x1="1405.31" y1="468.51" x2="1405.31" y2="570.85" gradientTransform="matrix(-0.71, -0.71, -0.71, 0.71, 1431.17, 800.73)" xlink:href="#Dégradé_sans_nom_465"/><linearGradient id="Dégradé_sans_nom_11" x1="122.66" y1="6" x2="122.66" y2="184.4" gradientUnits="userSpaceOnUse"><stop offset="0" stop-color="#ffd550"/><stop offset="1" stop-color="#ffb900"/></linearGradient><linearGradient id="Dégradé_sans_nom_465-3" x1="122.66" y1="47.94" x2="122.66" y2="142.1" gradientTransform="matrix(1, 0, 0, 1, 0, 0)" xlink:href="#Dégradé_sans_nom_465"/></defs><g id="Calque_2" data-name="Calque 2"><g id="Calque_2-2" data-name="Calque 2"><polygon class="cls-1" points="158.47 118.99 230.84 191.35 192.19 191.35 192.19 230 119.83 157.64 158.47 118.99"/><polygon class="cls-2" points="125.49 157.64 53.13 230 53.13 191.35 14.48 191.35 86.85 118.99 125.49 157.64"/><path class="cls-3" d="M129.88,7.31h0a20.51,20.51,0,0,1,21.62,4.6h0a20.5,20.5,0,0,0,13.19,5.87h0a20.53,20.53,0,0,1,17.89,13h0a20.5,20.5,0,0,0,9.66,10.72h0a20.52,20.52,0,0,1,11,19.15h0a20.49,20.49,0,0,0,4.47,13.73h0a20.53,20.53,0,0,1,2.31,22h0a20.46,20.46,0,0,0-1.51,14.36h0a20.52,20.52,0,0,1-6.83,21h0a20.48,20.48,0,0,0-7.22,12.51h0a20.53,20.53,0,0,1-14.8,16.43h0A20.53,20.53,0,0,0,168,169.17h0a20.49,20.49,0,0,1-20.19,9h0a20.51,20.51,0,0,0-14.12,3h0a20.56,20.56,0,0,1-22.11,0h0a20.53,20.53,0,0,0-14.12-3h0a20.51,20.51,0,0,1-20.2-9h0a20.53,20.53,0,0,0-11.68-8.48h0a20.52,20.52,0,0,1-14.79-16.43h0a20.58,20.58,0,0,0-7.22-12.51h0a20.5,20.5,0,0,1-6.83-21h0a20.57,20.57,0,0,0-1.51-14.36h0a20.51,20.51,0,0,1,2.31-22h0A20.54,20.54,0,0,0,42,60.65h0a20.54,20.54,0,0,1,11-19.15h0a20.46,20.46,0,0,0,9.66-10.72h0a20.53,20.53,0,0,1,17.89-13h0a20.5,20.5,0,0,0,13.19-5.87h0a20.51,20.51,0,0,1,21.62-4.6h0A20.51,20.51,0,0,0,129.88,7.31Z"/><path class="cls-4" d="M110.78,142.1a9.37,9.37,0,0,1-8.11-4.69L82.88,103.14a9.38,9.38,0,0,1,16.24-9.38L110.78,114l35.43-61.35A9.37,9.37,0,1,1,162.44,62L118.9,137.41A9.37,9.37,0,0,1,110.78,142.1Z"/><path class="cls-5" d="M137.1,6a20.47,20.47,0,0,1,14.4,5.91h0a20.45,20.45,0,0,0,13.18,5.87,20.53,20.53,0,0,1,17.89,13,20.5,20.5,0,0,0,9.66,10.72,20.52,20.52,0,0,1,11,19.15,20.49,20.49,0,0,0,4.47,13.73,20.53,20.53,0,0,1,2.31,22,20.46,20.46,0,0,0-1.51,14.36,20.52,20.52,0,0,1-6.83,21,20.48,20.48,0,0,0-7.22,12.51,20.61,20.61,0,0,1-3,7.76l39.34,39.34H192.19V230l-51.63-51.63a20.39,20.39,0,0,0-6.84,2.8,20.53,20.53,0,0,1-22.11,0,20.44,20.44,0,0,0-6.85-2.8L53.13,230V191.36H14.49L53.82,152a20.43,20.43,0,0,1-3-7.76,20.58,20.58,0,0,0-7.22-12.51,20.5,20.5,0,0,1-6.83-21,20.57,20.57,0,0,0-1.51-14.36,20.51,20.51,0,0,1,2.31-22A20.54,20.54,0,0,0,42,60.65a20.54,20.54,0,0,1,11-19.15,20.46,20.46,0,0,0,9.66-10.72h0a20.53,20.53,0,0,1,17.89-13h0a20.5,20.5,0,0,0,13.19-5.87,20.51,20.51,0,0,1,21.62-4.6,20.43,20.43,0,0,0,7.22,1.31,20.39,20.39,0,0,0,7.22-1.31A20.56,20.56,0,0,1,137.1,6m0-6V0a26.3,26.3,0,0,0-9.33,1.7,14.61,14.61,0,0,1-5.11.92,14.61,14.61,0,0,1-5.11-.92A26.49,26.49,0,0,0,89.6,7.64a14.48,14.48,0,0,1-9.33,4.15,26.58,26.58,0,0,0-23.11,16.8,14.54,14.54,0,0,1-6.84,7.59A26.62,26.62,0,0,0,36,60.92a14.54,14.54,0,0,1-3.15,9.72,26.59,26.59,0,0,0-3,28.41A14.48,14.48,0,0,1,31,109.21a26.6,26.6,0,0,0,8.83,27.18,14.51,14.51,0,0,1,5.11,8.85,26,26,0,0,0,1.59,5.63L10.24,187.11,0,197.36H47.13v47.12l10.24-10.24,49.07-49.06a13.31,13.31,0,0,1,1.93,1,26.52,26.52,0,0,0,28.58,0,13.42,13.42,0,0,1,1.94-1L188,234.24l10.24,10.24V197.36h47.13l-10.24-10.25-36.24-36.24a27.22,27.22,0,0,0,1.59-5.63,14.5,14.5,0,0,1,5.1-8.85,26.6,26.6,0,0,0,8.83-27.18,14.59,14.59,0,0,1,1.07-10.16,26.59,26.59,0,0,0-3-28.41,14.54,14.54,0,0,1-3.15-9.72A26.58,26.58,0,0,0,195,36.18a14.52,14.52,0,0,1-6.83-7.59,26.6,26.6,0,0,0-23.12-16.8,14.51,14.51,0,0,1-9.33-4.15A26.36,26.36,0,0,0,137.1,0Z"/></g></g></svg>