<svg xmlns="http://www.w3.org/2000/svg" xmlns:xlink="http://www.w3.org/1999/xlink" viewBox="0 0 236 204.56"><defs><style>.cls-1{fill:url(#Dégradé_sans_nom_2);}.cls-2{fill:url(#Dégradé_sans_nom_2-2);}.cls-3{fill:url(#Dégradé_sans_nom_2-3);}.cls-4{fill:url(#Dégradé_sans_nom_464);}.cls-5{fill:url(#Dégradé_sans_nom_464-2);}.cls-6{fill:url(#Dégradé_sans_nom_28);}.cls-7{fill:url(#Dégradé_sans_nom_2-4);}.cls-8{fill:url(#Dégradé_sans_nom_2-5);}.cls-9{fill:url(#Dégradé_sans_nom_2-6);}.cls-10{fill:url(#Dégradé_sans_nom_2-7);}.cls-11{fill:url(#Dégradé_sans_nom_2-8);}.cls-12{fill:url(#Dégradé_sans_nom_2-9);}.cls-13{fill:url(#Dégradé_sans_nom_2-10);}.cls-14{fill:url(#Dégradé_sans_nom_2-11);}.cls-15{fill:url(#Dégradé_sans_nom_2-12);}.cls-16{fill:url(#Dégradé_sans_nom_2-13);}.cls-17{fill:url(#Dégradé_sans_nom_2-14);}.cls-18{fill:url(#Dégradé_sans_nom_2-15);}.cls-19{fill:url(#Dégradé_sans_nom_2-16);}.cls-20{fill:url(#Dégradé_sans_nom_2-17);}.cls-21{fill:url(#Dégradé_sans_nom_2-18);}.cls-22,.cls-24{opacity:0.45;}.cls-23{fill:url(#Dégradé_sans_nom_2-19);}.cls-24{fill:#fff;}.cls-25{fill:#f4f4f4;}</style><linearGradient id="Dégradé_sans_nom_2" x1="6" y1="153.04" x2="118" y2="153.04" gradientUnits="userSpaceOnUse"><stop offset="0" stop-color="#00a096"/><stop offset="1" stop-color="#185a4c"/></linearGradient><linearGradient id="Dégradé_sans_nom_2-2" x1="118" y1="153.04" x2="230" y2="153.04" xlink:href="#Dégradé_sans_nom_2"/><linearGradient id="Dégradé_sans_nom_2-3" x1="6" y1="107.52" x2="230" y2="107.52" xlink:href="#Dégradé_sans_nom_2"/><linearGradient id="Dégradé_sans_nom_464" x1="143.61" y1="109.75" x2="99.83" y2="109.75" gradientUnits="userSpaceOnUse"><stop offset="0" stop-color="#ffb900"/><stop offset="1" stop-color="#ffd550"/></linearGradient><linearGradient id="Dégradé_sans_nom_464-2" x1="117.4" y1="38.43" x2="43.44" y2="77.54" xlink:href="#Dégradé_sans_nom_464"/><linearGradient id="Dégradé_sans_nom_28" x1="119.22" y1="38.52" x2="192.33" y2="81.46" gradientUnits="userSpaceOnUse"><stop offset="0" stop-color="#ffd550"/><stop offset="1" stop-color="#ffb900"/></linearGradient><linearGradient id="Dégradé_sans_nom_2-4" x1="120.44" y1="81.91" x2="149.21" y2="81.91" xlink:href="#Dégradé_sans_nom_2"/><linearGradient id="Dégradé_sans_nom_2-5" x1="149.21" y1="87.5" x2="158.59" y2="87.5" xlink:href="#Dégradé_sans_nom_2"/><linearGradient id="Dégradé_sans_nom_2-6" x1="120.44" y1="74.08" x2="158.59" y2="74.08" xlink:href="#Dégradé_sans_nom_2"/><linearGradient id="Dégradé_sans_nom_2-7" x1="89.15" y1="72.52" x2="94.96" y2="72.52" xlink:href="#Dégradé_sans_nom_2"/><linearGradient id="Dégradé_sans_nom_2-8" x1="94.96" y1="72.52" x2="100.77" y2="72.52" xlink:href="#Dégradé_sans_nom_2"/><linearGradient id="Dégradé_sans_nom_2-9" x1="89.15" y1="55.85" x2="100.77" y2="55.85" xlink:href="#Dégradé_sans_nom_2"/><linearGradient id="Dégradé_sans_nom_2-10" x1="129.74" y1="63.87" x2="137.9" y2="63.87" xlink:href="#Dégradé_sans_nom_2"/><linearGradient id="Dégradé_sans_nom_2-11" x1="137.9" y1="63.87" x2="146.06" y2="63.87" xlink:href="#Dégradé_sans_nom_2"/><linearGradient id="Dégradé_sans_nom_2-12" x1="129.74" y1="57.06" x2="146.06" y2="57.06" xlink:href="#Dégradé_sans_nom_2"/><linearGradient id="Dégradé_sans_nom_2-13" x1="152.88" y1="54.23" x2="161.04" y2="54.23" xlink:href="#Dégradé_sans_nom_2"/><linearGradient id="Dégradé_sans_nom_2-14" x1="161.04" y1="55.65" x2="164.3" y2="55.65" xlink:href="#Dégradé_sans_nom_2"/><linearGradient id="Dégradé_sans_nom_2-15" x1="152.88" y1="48.84" x2="164.3" y2="48.84" xlink:href="#Dégradé_sans_nom_2"/><linearGradient id="Dégradé_sans_nom_2-16" x1="155.37" y1="52.91" x2="155.37" y2="147.62" xlink:href="#Dégradé_sans_nom_2"/><linearGradient id="Dégradé_sans_nom_2-17" x1="81.29" y1="66.2" x2="81.29" y2="142.23" xlink:href="#Dégradé_sans_nom_2"/><linearGradient id="Dégradé_sans_nom_2-18" x1="76.7" y1="113.33" x2="76.7" y2="71.37" xlink:href="#Dégradé_sans_nom_2"/><linearGradient id="Dégradé_sans_nom_2-19" x1="162.58" y1="127.1" x2="162.58" y2="76.62" xlink:href="#Dégradé_sans_nom_2"/></defs><g id="Calque_2" data-name="Calque 2"><g id="Calque_2-2" data-name="Calque 2"><path class="cls-1" d="M6,107.52v20a15,15,0,0,0,7.56,13.1l96.88,55.93a15.12,15.12,0,0,0,7.56,2v-20Z"/><path class="cls-2" d="M230,107.52v20a15,15,0,0,1-7.56,13.1l-96.88,55.93a15.12,15.12,0,0,1-7.56,2v-20Z"/><path class="cls-3" d="M13.56,94.42l96.88-55.93a15.12,15.12,0,0,1,15.12,0l96.88,55.93a15.13,15.13,0,0,1,0,26.2l-96.88,55.93a15.12,15.12,0,0,1-15.12,0L13.56,120.62A15.13,15.13,0,0,1,13.56,94.42Z"/><polygon class="cls-4" points="43.92 108.74 117.47 68.79 192.74 108.74 118 150.7 43.92 108.74"/><polygon class="cls-5" points="117.47 6.94 43.92 49.86 43.92 108.74 117.47 68.79 117.47 6.94"/><polygon class="cls-6" points="192.74 50.39 117.47 6.94 117.47 68.79 192.74 108.74 192.74 50.39"/><path class="cls-7" d="M120.44,68.49v9.69a1.25,1.25,0,0,0,.63,1.1l27.5,15.88a1.33,1.33,0,0,0,.64.17v-9.7Z"/><path class="cls-8" d="M158.59,79.68v9.7a1.24,1.24,0,0,1-.64,1.09l-8.11,4.69a1.32,1.32,0,0,1-.63.17v-9.7Z"/><path class="cls-9" d="M121.07,67.39l8.12-4.68a1.24,1.24,0,0,1,1.26,0L158,78.58a1.27,1.27,0,0,1,0,2.2l-8.11,4.68a1.26,1.26,0,0,1-1.27,0l-27.5-15.87A1.28,1.28,0,0,1,121.07,67.39Z"/><path class="cls-10" d="M89.15,55.85V85.5a.78.78,0,0,0,.4.68l5,2.9a.79.79,0,0,0,.39.11V59.53Z"/><path class="cls-11" d="M100.77,55.85V85.5a.77.77,0,0,1-.39.68l-5,2.9a.83.83,0,0,1-.4.11V59.53Z"/><path class="cls-12" d="M89.55,55.17l5-2.9a.8.8,0,0,1,.79,0l5,2.9a.79.79,0,0,1,0,1.36l-5,2.9a.8.8,0,0,1-.79,0l-5-2.9A.78.78,0,0,1,89.55,55.17Z"/><path class="cls-13" d="M129.74,57.06V65.5a1.08,1.08,0,0,0,.55,1l7.06,4.08a1.08,1.08,0,0,0,.55.15V62.24Z"/><path class="cls-14" d="M146.06,57.06V65.5a1.08,1.08,0,0,1-.55,1l-7.06,4.08a1.08,1.08,0,0,1-.55.15V62.24Z"/><path class="cls-15" d="M130.29,56.11,137.35,52a1.13,1.13,0,0,1,1.1,0l7.06,4.08a1.1,1.1,0,0,1,0,1.91l-7.06,4.07a1.08,1.08,0,0,1-1.1,0L130.29,58A1.1,1.1,0,0,1,130.29,56.11Z"/><path class="cls-16" d="M152.88,47.42v8.44a1.08,1.08,0,0,0,.55,1l7.06,4.08A1.07,1.07,0,0,0,161,61V52.6Z"/><path class="cls-17" d="M164.3,50.26v8.43a1.11,1.11,0,0,1-.56,1l-2.15,1.24A1.07,1.07,0,0,1,161,61V52.6Z"/><path class="cls-18" d="M153.43,46.47l2.15-1.24a1.08,1.08,0,0,1,1.1,0l7.06,4.07a1.1,1.1,0,0,1,0,1.91l-2.15,1.24a1.08,1.08,0,0,1-1.1,0l-7.06-4.07A1.11,1.11,0,0,1,153.43,46.47Z"/><polygon class="cls-19" points="192.74 50.39 192.74 108.74 173.07 119.78 170.45 118.57 154.71 127.1 154.71 130.09 118 150.7 118 94.32 192.74 50.39"/><polygon class="cls-20" points="118.66 93.01 118 150.7 43.92 108.74 43.92 49.86 118.66 93.01"/><polygon class="cls-21" points="64.24 71.37 89.15 85.14 89.15 113.33 64.24 98.91 64.24 71.37"/><polygon class="cls-22" points="64.24 98.91 66.86 97.6 66.86 72.82 64.24 71.37 64.24 98.91"/><polygon class="cls-23" points="154.71 127.1 154.71 86.57 170.45 76.62 170.45 118.57 154.71 127.1"/><polygon class="cls-24" points="89.15 109.86 66.86 97.6 64.24 98.91 89.15 113.33 89.15 109.86"/><polygon class="cls-22" points="170.45 76.62 170.45 118.57 173.07 119.89 173.07 75.31 170.45 76.62"/><path class="cls-25" d="M117.47,6.94l75.27,43.45V77.28l29.7,17.14A15,15,0,0,1,230,107.53v20a15,15,0,0,1-7.56,13.1l-96.88,55.93a15.09,15.09,0,0,1-15.12,0L13.56,140.6A15,15,0,0,1,6,127.5v-20a15,15,0,0,1,7.56-13.11L43.92,76.9v-27L117.47,6.94m0-6.94-3,1.76L40.9,44.68l-3,1.73v27L10.56,89.23A20.92,20.92,0,0,0,0,107.53v20a20.92,20.92,0,0,0,10.56,18.3l96.88,55.93a21.12,21.12,0,0,0,21.12,0l96.88-55.93A20.92,20.92,0,0,0,236,127.5v-20a20.92,20.92,0,0,0-10.56-18.3l-26.7-15.42V46.93l-3-1.73L120.47,1.74l-3-1.74Z"/></g></g></svg>