<svg xmlns="http://www.w3.org/2000/svg" xmlns:xlink="http://www.w3.org/1999/xlink" viewBox="0 0 236 234.15"><defs><style>.cls-1{fill:url(#Dégradé_sans_nom_2);}.cls-2{fill:url(#Dégradé_sans_nom_2-2);}.cls-3{fill:url(#Dégradé_sans_nom_2-3);}.cls-4{fill:url(#Dégradé_sans_nom_2-4);}.cls-5{fill:url(#Dégradé_sans_nom_2-5);}.cls-6{fill:url(#Dégradé_sans_nom_2-6);}.cls-11,.cls-7{opacity:0.45;}.cls-8{fill:url(#Dégradé_sans_nom_464);}.cls-9{fill:url(#Dégradé_sans_nom_464-2);}.cls-10{fill:url(#Dégradé_sans_nom_2-7);}.cls-11{fill:#fff;}.cls-12{fill:url(#Dégradé_sans_nom_2-8);}.cls-13{fill:url(#Dégradé_sans_nom_2-9);}.cls-14{fill:url(#Dégradé_sans_nom_2-10);}.cls-15{fill:url(#Dégradé_sans_nom_2-11);}.cls-16{fill:url(#Dégradé_sans_nom_2-12);}.cls-17{fill:url(#Dégradé_sans_nom_30);}.cls-18{fill:#f4f4f4;}</style><linearGradient id="Dégradé_sans_nom_2" x1="6" y1="182.63" x2="118" y2="182.63" gradientUnits="userSpaceOnUse"><stop offset="0" stop-color="#00a096"/><stop offset="1" stop-color="#185a4c"/></linearGradient><linearGradient id="Dégradé_sans_nom_2-2" x1="118" y1="182.63" x2="230" y2="182.63" xlink:href="#Dégradé_sans_nom_2"/><linearGradient id="Dégradé_sans_nom_2-3" x1="6" y1="137.11" x2="230" y2="137.11" xlink:href="#Dégradé_sans_nom_2"/><linearGradient id="Dégradé_sans_nom_2-4" x1="155.37" y1="62.05" x2="155.37" y2="176.57" xlink:href="#Dégradé_sans_nom_2"/><linearGradient id="Dégradé_sans_nom_2-5" x1="81.29" y1="107.77" x2="81.29" y2="173.02" xlink:href="#Dégradé_sans_nom_2"/><linearGradient id="Dégradé_sans_nom_2-6" x1="76.7" y1="142.92" x2="76.7" y2="100.96" xlink:href="#Dégradé_sans_nom_2"/><linearGradient id="Dégradé_sans_nom_464" x1="129.99" y1="87.92" x2="55.64" y2="46.93" gradientUnits="userSpaceOnUse"><stop offset="0" stop-color="#ffb900"/><stop offset="1" stop-color="#ffd550"/></linearGradient><linearGradient id="Dégradé_sans_nom_464-2" x1="205.22" y1="81.56" x2="135.17" y2="87.76" xlink:href="#Dégradé_sans_nom_464"/><linearGradient id="Dégradé_sans_nom_2-7" x1="162.58" y1="156.68" x2="162.58" y2="106.2" xlink:href="#Dégradé_sans_nom_2"/><linearGradient id="Dégradé_sans_nom_2-8" x1="7057.39" y1="57.76" x2="7067.49" y2="57.76" gradientTransform="matrix(-1, 0, 0, 1, 7159, 0)" xlink:href="#Dégradé_sans_nom_2"/><linearGradient id="Dégradé_sans_nom_2-9" x1="7067.49" y1="57.76" x2="7077.06" y2="57.76" gradientTransform="matrix(-1, 0, 0, 1, 7159, 0)" xlink:href="#Dégradé_sans_nom_2"/><linearGradient id="Dégradé_sans_nom_2-10" x1="84.57" y1="43.27" x2="91.78" y2="43.27" xlink:href="#Dégradé_sans_nom_2"/><linearGradient id="Dégradé_sans_nom_2-11" x1="91.78" y1="43.27" x2="98.99" y2="43.27" xlink:href="#Dégradé_sans_nom_2"/><linearGradient id="Dégradé_sans_nom_2-12" x1="81.94" y1="43.41" x2="101.61" y2="43.41" xlink:href="#Dégradé_sans_nom_2"/><linearGradient id="Dégradé_sans_nom_30" x1="-69.6" y1="-654.35" x2="-69.6" y2="-671.5" gradientTransform="matrix(0.87, 0.5, -1, 0.58, -442.98, 510.15)" gradientUnits="userSpaceOnUse"><stop offset="0" stop-color="#ffd550"/><stop offset="1" stop-color="#ffb900"/></linearGradient></defs><g id="Calque_2" data-name="Calque 2"><g id="Calque_2-2" data-name="Calque 2"><path class="cls-1" d="M6,137.11v20a15,15,0,0,0,7.56,13.1l96.88,55.93a15.12,15.12,0,0,0,7.56,2v-20Z"/><path class="cls-2" d="M230,137.11v20a15,15,0,0,1-7.56,13.1l-96.88,55.93a15.12,15.12,0,0,1-7.56,2v-20Z"/><path class="cls-3" d="M13.56,124l96.88-55.93a15.12,15.12,0,0,1,15.12,0L222.44,124a15.13,15.13,0,0,1,0,26.2l-96.88,55.93a15.12,15.12,0,0,1-15.12,0L13.56,150.21A15.13,15.13,0,0,1,13.56,124Z"/><polygon class="cls-4" points="192.74 79.98 192.74 138.33 173.07 149.37 170.45 148.16 154.71 156.68 154.71 159.67 118 180.28 118 123.9 155.37 59 192.74 79.98"/><polygon class="cls-5" points="118 180.28 43.92 138.33 43.92 93.75 105.54 130.46 118.66 122.59 118 180.28"/><polygon class="cls-6" points="64.24 100.96 89.15 114.73 89.15 142.92 64.24 128.49 64.24 100.96"/><polygon class="cls-7" points="64.24 128.49 66.86 127.18 66.86 105.55 64.24 105.55 64.24 128.49"/><polygon class="cls-8" points="155.37 45.89 105.54 130.46 32.12 87.85 78.01 7.87 155.37 45.89"/><polygon class="cls-9" points="155.37 59 118.65 122.77 105.54 130.46 155.37 45.89 203.88 72.77 192.15 79.65 155.37 59"/><polygon class="cls-10" points="154.71 156.68 154.71 116.16 170.45 106.2 170.45 148.16 154.71 156.68"/><polygon class="cls-11" points="89.15 139.44 66.86 127.18 64.24 128.49 89.15 142.92 89.15 139.44"/><polygon class="cls-7" points="170.45 106.2 170.45 148.16 173.07 149.47 173.07 104.89 170.45 106.2"/><polygon class="cls-12" points="101.61 43.41 91.51 49.26 91.51 72.11 101.61 54.57 101.61 43.41"/><polygon class="cls-13" points="81.94 43.41 91.51 49.26 91.51 72.11 81.94 66.27 81.94 43.41"/><polygon class="cls-14" points="91.78 38.68 91.78 47.86 84.56 43.27 91.78 38.68"/><polygon class="cls-15" points="98.99 43.27 91.78 47.86 91.78 38.68 98.99 43.27"/><path class="cls-16" d="M91.51,37.56l-9.57,5.85,9.57,5.85,10.1-5.85ZM85.4,43.41l6.2-3.79,6.55,3.79L91.6,47.2Z"/><ellipse class="cls-17" cx="157.4" cy="89.35" rx="12.16" ry="7.02" transform="translate(0.82 180.14) rotate(-59.69)"/><path class="cls-18" d="M78,7.87l77.36,38,48.51,26.88-11.73,6.88.59.33v26.88L222.44,124A15,15,0,0,1,230,137.12v20a15,15,0,0,1-7.56,13.1l-96.88,55.93a15.09,15.09,0,0,1-15.12,0L13.56,170.19A15,15,0,0,1,6,157.09v-20A15,15,0,0,1,13.56,124l30.36-17.53V94.7l-11.8-6.85L78,7.87m40,200.3h0M75.61,0l-2.8,4.88-45.9,80-3,5.18,5.17,3,8.81,5.11V103l-27.36,15.8A20.89,20.89,0,0,0,0,137.11v20a20.92,20.92,0,0,0,10.56,18.3l96.88,55.93a21.12,21.12,0,0,0,21.12,0l96.88-55.93A20.92,20.92,0,0,0,236,157.09v-20a20.92,20.92,0,0,0-10.56-18.3l-26.7-15.42V82.74l8.18-4.8L216,72.62l-9.2-5.1L158.28,40.64l-.13-.07-.14-.06-77.35-38L75.61,0Z"/></g></g></svg>