<svg xmlns="http://www.w3.org/2000/svg" xmlns:xlink="http://www.w3.org/1999/xlink" viewBox="0 0 247.83 236"><defs><style>.cls-1{fill:url(#Dégradé_sans_nom_24);}.cls-2{fill:url(#Dégradé_sans_nom_63);}.cls-3{fill:#00a096;}.cls-4{fill:#fff;}.cls-5{fill:#383838;}.cls-6{fill:url(#Dégradé_sans_nom_2);}.cls-7{opacity:0.6;fill:url(#Dégradé_sans_nom_70);}.cls-10,.cls-11,.cls-12,.cls-13,.cls-14,.cls-15,.cls-16,.cls-8,.cls-9{fill:none;stroke-linecap:round;stroke-linejoin:round;}.cls-8{stroke-width:5px;stroke:url(#Dégradé_sans_nom_2-2);}.cls-10,.cls-11,.cls-12,.cls-13,.cls-14,.cls-15,.cls-16,.cls-9{stroke-width:2px;}.cls-9{stroke:url(#Dégradé_sans_nom_2-3);}.cls-10{stroke:url(#Dégradé_sans_nom_2-4);}.cls-11{stroke:url(#Dégradé_sans_nom_2-5);}.cls-12{stroke:url(#Dégradé_sans_nom_2-6);}.cls-13{stroke:url(#Dégradé_sans_nom_2-7);}.cls-14{stroke:url(#Dégradé_sans_nom_2-8);}.cls-15{stroke:url(#Dégradé_sans_nom_2-9);}.cls-16{stroke:url(#Dégradé_sans_nom_2-10);}.cls-17{fill:#f4f4f4;}</style><linearGradient id="Dégradé_sans_nom_24" x1="185.83" y1="11.84" x2="185.83" y2="123.84" gradientUnits="userSpaceOnUse"><stop offset="0" stop-color="#ffd550"/><stop offset="1" stop-color="#ffb900"/></linearGradient><linearGradient id="Dégradé_sans_nom_63" x1="185.83" y1="19.84" x2="185.83" y2="115.84" gradientUnits="userSpaceOnUse"><stop offset="0" stop-color="#ffb900"/><stop offset="1" stop-color="#ffd550"/></linearGradient><linearGradient id="Dégradé_sans_nom_2" x1="41.88" y1="135.03" x2="153.19" y2="135.03" gradientUnits="userSpaceOnUse"><stop offset="0" stop-color="#00a096"/><stop offset="1" stop-color="#185a4c"/></linearGradient><linearGradient id="Dégradé_sans_nom_70" x1="683.98" y1="-400.65" x2="761.73" y2="-400.65" gradientTransform="translate(-42 862.27) rotate(-45)" gradientUnits="userSpaceOnUse"><stop offset="0" stop-color="#fff"/><stop offset="1" stop-color="#fff" stop-opacity="0"/></linearGradient><linearGradient id="Dégradé_sans_nom_2-2" x1="183.33" y1="61.31" x2="201.11" y2="61.31" xlink:href="#Dégradé_sans_nom_2"/><linearGradient id="Dégradé_sans_nom_2-3" x1="184.83" y1="103.19" x2="186.83" y2="103.19" xlink:href="#Dégradé_sans_nom_2"/><linearGradient id="Dégradé_sans_nom_2-4" x1="721.85" y1="-365.3" x2="723.85" y2="-365.3" gradientTransform="translate(-42 862.27) rotate(-45)" xlink:href="#Dégradé_sans_nom_2"/><linearGradient id="Dégradé_sans_nom_2-5" x1="1432.86" y1="-316.84" x2="1434.86" y2="-316.84" gradientTransform="translate(538.02 1501.69) rotate(-90)" xlink:href="#Dégradé_sans_nom_2"/><linearGradient id="Dégradé_sans_nom_2-6" x1="1901.34" y1="220.18" x2="1903.34" y2="220.18" gradientTransform="translate(1400.29 1543.7) rotate(-135)" xlink:href="#Dégradé_sans_nom_2"/><linearGradient id="Dégradé_sans_nom_2-7" x1="1852.88" y1="931.19" x2="1854.88" y2="931.19" gradientTransform="translate(2039.71 963.68) rotate(180)" xlink:href="#Dégradé_sans_nom_2"/><linearGradient id="Dégradé_sans_nom_2-8" x1="1315.86" y1="1399.67" x2="1317.86" y2="1399.67" gradientTransform="translate(2081.71 101.4) rotate(135)" xlink:href="#Dégradé_sans_nom_2"/><linearGradient id="Dégradé_sans_nom_2-9" x1="604.86" y1="1351.21" x2="606.86" y2="1351.21" gradientTransform="translate(1501.69 -538.02) rotate(90)" xlink:href="#Dégradé_sans_nom_2"/><linearGradient id="Dégradé_sans_nom_2-10" x1="136.37" y1="814.19" x2="138.37" y2="814.19" gradientTransform="translate(639.42 -580.02) rotate(45)" xlink:href="#Dégradé_sans_nom_2"/></defs><g id="Calque_2" data-name="Calque 2"><g id="Calque_2-2" data-name="Calque 2"><circle class="cls-1" cx="185.83" cy="67.84" r="56"/><circle class="cls-2" cx="185.83" cy="67.84" r="48"/><path class="cls-3" d="M112,147.78s27.66,24,55.62,20.8,57.1-45.38,57.1-45.38l-10.51-6.5s-37,31.33-50.33,29.49-39.68-32.79-50.71-35.44a200.36,200.36,0,0,0-32.2-4.68c-12.69,11-45.51,6.42-45.51,6.42s-8.71,16-6.87,44c1.08,16.52,9.21,39.13,15.69,54.91a113.11,113.11,0,0,0,107.61,9.06C121.67,181.78,112,147.78,112,147.78Z"/><circle class="cls-4" cx="52.51" cy="69.6" r="32.85"/><path class="cls-5" d="M6.35,66.1c2.44,15.17,17,26.08,20.57,24.08,2.5-1.42-2.19-8.41,1.13-18.45.62-1.87,4.2-11.94,12.73-15.14C50,53.13,55.22,61.35,67.3,59.22c.75-.13,11.07-2.08,16.85-10.2,11.17-15.68-2.46-43.34-9-43-3.82.19-2.3,9.92-10.51,15.49-8.73,5.93-16-1.24-30.28,3.4A41.05,41.05,0,0,0,15.66,38C13.26,40.94,4.09,52.09,6.35,66.1Z"/><path class="cls-6" d="M41.88,124.47s55.66,16,105.3-23.35l6,12.56s-19,22.13-51.73,36C75,160.91,44.11,168.93,44.11,168.93"/><circle class="cls-4" cx="220.19" cy="118" r="9.64"/><circle class="cls-4" cx="149.96" cy="106.35" r="9.64"/><circle class="cls-7" cx="185.83" cy="67.84" r="38.87"/><polyline class="cls-8" points="185.83 42 185.83 67.84 198.6 80.62"/><line class="cls-9" x1="185.83" y1="106.71" x2="185.83" y2="99.66"/><line class="cls-10" x1="213.32" y1="95.33" x2="208.33" y2="90.34"/><line class="cls-11" x1="224.7" y1="67.84" x2="217.65" y2="67.84"/><line class="cls-12" x1="213.32" y1="40.35" x2="208.33" y2="45.34"/><line class="cls-13" x1="185.83" y1="28.96" x2="185.83" y2="36.02"/><line class="cls-14" x1="158.34" y1="40.35" x2="163.33" y2="45.34"/><line class="cls-15" x1="146.95" y1="67.84" x2="154.01" y2="67.84"/><line class="cls-16" x1="158.34" y1="95.33" x2="163.33" y2="90.34"/><path class="cls-17" d="M75.31,6c6.54,0,19.94,27.43,8.84,43a22.48,22.48,0,0,1-3.42,3.75A32.85,32.85,0,0,1,26.92,90.18a2.14,2.14,0,0,1-1.05.23c-4.73,0-17.28-10.35-19.52-24.31S13.26,40.94,15.66,38A41.05,41.05,0,0,1,34.41,24.89a32.84,32.84,0,0,1,10.43-1.67c4.34,0,8,.76,11.38.76a14.23,14.23,0,0,0,8.47-2.49C72.9,15.92,71.38,6.19,75.2,6h.11m0-6H74.9c-5.72.28-7.51,5.48-8.57,8.59-1,2.9-2,5.91-5,7.93A8.25,8.25,0,0,1,56.22,18c-1.3,0-2.74-.15-4.41-.32a69.22,69.22,0,0,0-7-.44,39,39,0,0,0-12.29,2A46.63,46.63,0,0,0,11,34.2C0,47.56-.8,59.44.42,67.05A40.25,40.25,0,0,0,10.77,87.57c1.76,1.9,7.61,7.76,13.51,8.71A38.85,38.85,0,0,0,88,53.83c.36-.44.69-.88,1-1.33,8.87-12.45,5.4-29.7-.26-40.69C86,6.42,81.41,0,75.31,0Z"/><path class="cls-17" d="M185.83,11.84A56,56,0,0,1,223.74,109a9.64,9.64,0,0,1-2.27,18.51c-8.32,10.85-31.49,38.46-53.9,41a46.44,46.44,0,0,1-5.25.29c-26.07,0-50.37-21.09-50.37-21.09s9.72,34,39.89,72.68A113.11,113.11,0,0,1,44.23,211.4C37.75,195.62,29.62,173,28.54,156.49c-1.84-28,6.87-44,6.87-44a123.3,123.3,0,0,0,15.37,1c10.31,0,23.22-1.37,30.14-7.37a200.36,200.36,0,0,1,32.2,4.68c2.5.6,5.8,2.66,9.55,5.51a121.64,121.64,0,0,0,17.65-10.07,9.65,9.65,0,0,1,1.08-4.28,56,56,0,0,1,44.43-90.07M165,146.27c11.46,0,36.47-19.3,45.66-26.72a8.81,8.81,0,0,1-.13-1.46A56,56,0,0,1,155,114.57a9.52,9.52,0,0,1-3.86,1.35,140.5,140.5,0,0,1-13.93,12.48c9.78,8.43,19.9,16.86,26.64,17.79a9.14,9.14,0,0,0,1.19.08M185.83,5.84a62.07,62.07,0,0,0-62,62,61.33,61.33,0,0,0,10.79,34.94,114.91,114.91,0,0,1-11.33,6.52,27.44,27.44,0,0,0-8.77-4.39,204,204,0,0,0-33.3-4.83l-2.4-.12L77,101.54c-4.39,3.8-13.7,5.9-26.21,5.9a121,121,0,0,1-14.54-.89L32.12,106l-2,3.65c-.39.71-9.52,17.9-7.59,47.25,1.13,17.24,9.39,40.4,16.13,56.8l.7,1.71,1.55,1A119.09,119.09,0,0,0,154.25,226l7.06-3.1-4.74-6.08a257.57,257.57,0,0,1-32.13-53.19c10,5.65,23.59,11.29,37.88,11.29a52.64,52.64,0,0,0,5.93-.33c23.43-2.69,46.56-28.77,56.65-41.64a15.64,15.64,0,0,0,7.72-24.41A62,62,0,0,0,185.83,5.84ZM154.12,121.42l.35-.1a61.76,61.76,0,0,0,31.36,8.52h.84c-9.9,6.55-17.79,10.44-21.65,10.44l-.37,0c-4.08-.56-11.84-6.54-18.12-11.78,3.14-2.72,5.67-5.13,7.59-7Z"/></g></g></svg>