<svg xmlns="http://www.w3.org/2000/svg" xmlns:xlink="http://www.w3.org/1999/xlink" viewBox="0 0 218.51 244.35"><defs><style>.cls-1{fill:#f4f4f4;}.cls-2{fill:url(#Dégradé_sans_nom_446);}.cls-3{fill:url(#Dégradé_sans_nom_449);}.cls-4{fill:url(#Dégradé_sans_nom_449-2);}.cls-5{fill:url(#Dégradé_sans_nom_449-3);}.cls-6{fill:url(#Dégradé_sans_nom_449-4);}.cls-7{fill:url(#Dégradé_sans_nom_449-5);}.cls-8{fill:url(#Dégradé_sans_nom_449-6);}.cls-9{fill:url(#Dégradé_sans_nom_449-7);}.cls-10{fill:url(#Dégradé_sans_nom_449-8);}.cls-11{fill:url(#Dégradé_sans_nom_449-9);}.cls-12,.cls-13{fill:none;stroke-linecap:round;stroke-linejoin:round;stroke-width:10px;}.cls-12{stroke:url(#Dégradé_sans_nom_196);}.cls-13{stroke:url(#Dégradé_sans_nom_196-2);}</style><linearGradient id="Dégradé_sans_nom_446" x1="58.19" y1="56.95" x2="160.08" y2="56.95" gradientUnits="userSpaceOnUse"><stop offset="0" stop-color="#fff"/><stop offset="1" stop-color="#dce6e4"/></linearGradient><linearGradient id="Dégradé_sans_nom_449" x1="66.19" y1="56.95" x2="152.08" y2="56.95" gradientUnits="userSpaceOnUse"><stop offset="0" stop-color="#66c4b2"/><stop offset="1" stop-color="#dce6e4"/></linearGradient><linearGradient id="Dégradé_sans_nom_449-2" x1="99.13" y1="109.01" x2="195.78" y2="109.01" xlink:href="#Dégradé_sans_nom_449"/><linearGradient id="Dégradé_sans_nom_449-3" x1="22.49" y1="109.01" x2="119.14" y2="109.01" xlink:href="#Dégradé_sans_nom_449"/><linearGradient id="Dégradé_sans_nom_449-4" x1="6.6" y1="128" x2="211.67" y2="128" xlink:href="#Dégradé_sans_nom_449"/><linearGradient id="Dégradé_sans_nom_449-5" x1="9.66" y1="195.31" x2="41.35" y2="195.31" gradientTransform="translate(186.57 81.94) rotate(62.3)" xlink:href="#Dégradé_sans_nom_449"/><linearGradient id="Dégradé_sans_nom_449-6" x1="176.92" y1="195.31" x2="208.61" y2="195.31" gradientTransform="translate(112.88 -67.22) rotate(27.7)" xlink:href="#Dégradé_sans_nom_449"/><linearGradient id="Dégradé_sans_nom_449-7" x1="190.9" y1="217.13" x2="211.13" y2="217.13" xlink:href="#Dégradé_sans_nom_449"/><linearGradient id="Dégradé_sans_nom_449-8" x1="7.29" y1="216.98" x2="27.37" y2="216.98" xlink:href="#Dégradé_sans_nom_449"/><linearGradient id="Dégradé_sans_nom_449-9" x1="104.16" y1="36.02" x2="114.11" y2="36.02" xlink:href="#Dégradé_sans_nom_449"/><linearGradient id="Dégradé_sans_nom_196" x1="32.13" y1="118" x2="186.13" y2="118" gradientUnits="userSpaceOnUse"><stop offset="0" stop-color="#ff005c"/><stop offset="1" stop-color="#bf0005"/></linearGradient><linearGradient id="Dégradé_sans_nom_196-2" x1="32.13" y1="118" x2="186.13" y2="118" xlink:href="#Dégradé_sans_nom_196"/></defs><g id="Calque_2" data-name="Calque 2"><g id="Calque_2-2" data-name="Calque 2"><path class="cls-1" d="M85.69,102.18a50.91,50.91,0,0,0,46.89,0L151,137.26a104.59,104.59,0,0,1-83.71,0l18.41-35.08M83.16,94.1l-2.78,5.29L62,134.47l-3,5.69,5.9,2.59a110.54,110.54,0,0,0,88.53,0l5.89-2.59-3-5.69L137.89,99.39l-2.78-5.29-5.3,2.76a44.93,44.93,0,0,1-41.35,0l-5.3-2.76Z"/><path class="cls-1" d="M109.13,6a51,51,0,0,1,39.31,83.37l20,38.1a104.12,104.12,0,0,0,28.47-29.76,8,8,0,0,1,13.51,8.58,120.18,120.18,0,0,1-34.49,35.45l18.7,35.61,14,26.62h0l2.52,26.33-20.23-17h0l-14-26.62-18.47-35.2a120.53,120.53,0,0,1-98.63,0l-18.47,35.2-14,26.62L7.29,230l2.37-26,14-26.62,18.69-35.61A120.27,120.27,0,0,1,7.85,106.29a8,8,0,0,1,13.51-8.58,104.12,104.12,0,0,0,28.47,29.76l20-38.1A51,51,0,0,1,109.13,6m0-6A56.95,56.95,0,0,0,62.74,90l-15,28.48a98.28,98.28,0,0,1-21.37-24A14,14,0,0,0,.94,99,13.89,13.89,0,0,0,2.78,109.5a125.74,125.74,0,0,0,31.79,34.12L18.33,174.56,4.57,200.77a8.12,8.12,0,0,0-1,3.77l-.27,3-.82,8.95-1.19,13L0,243.88l11.13-9.27,20.08-16.73,2.16-1.8v-1.33l13.29-25.31,15.91-30.31a126.66,126.66,0,0,0,93.13,0l15.91,30.31,14,26.62.55,1,.9.76,20.23,17,11.24,9.46-1.4-14.63-2.53-26.32-.11-1.18-.55-1-14-26.62L183.7,143.62a125.74,125.74,0,0,0,31.79-34.12,14,14,0,1,0-23.64-15,98.28,98.28,0,0,1-21.37,24L155.53,90a56.95,56.95,0,0,0-46.4-90Z"/><circle class="cls-2" cx="109.13" cy="56.95" r="50.95"/><circle class="cls-3" cx="109.13" cy="56.95" r="42.95"/><path class="cls-4" d="M185.79,192a10,10,0,0,1-8.87-5.35l-76.64-146A10,10,0,0,1,118,31.38l76.64,146A10,10,0,0,1,185.79,192Z"/><path class="cls-5" d="M32.48,192a10,10,0,0,1-8.84-14.65l76.64-146A10,10,0,1,1,118,40.67l-76.64,146A10,10,0,0,1,32.48,192Z"/><path class="cls-6" d="M109.13,162A119.43,119.43,0,0,1,7.85,106.29a8,8,0,1,1,13.5-8.58,103.93,103.93,0,0,0,175.56,0,8,8,0,0,1,13.51,8.58A119.43,119.43,0,0,1,109.13,162Z"/><rect class="cls-7" x="10.47" y="185.31" width="30.07" height="20" transform="translate(-159.28 127.1) rotate(-62.3)"/><rect class="cls-8" x="182.77" y="180.28" width="20" height="30.06" transform="translate(-68.7 111.99) rotate(-27.7)"/><polygon class="cls-9" points="211.13 230.29 190.9 213.27 208.61 203.97 211.13 230.29"/><polygon class="cls-10" points="7.29 230 9.66 203.97 27.37 213.27 7.29 230"/><circle class="cls-11" cx="109.13" cy="36.02" r="4.98"/><line class="cls-12" x1="37.13" y1="46" x2="181.13" y2="190"/><line class="cls-13" x1="181.13" y1="46" x2="37.13" y2="190"/></g></g></svg>