<svg xmlns="http://www.w3.org/2000/svg" xmlns:xlink="http://www.w3.org/1999/xlink" viewBox="0 0 238.52 236.5"><defs><style>.cls-1{fill:url(#Dégradé_sans_nom_2);}.cls-2{fill:url(#Dégradé_sans_nom_2-2);}.cls-3{fill:url(#Dégradé_sans_nom_2-3);}.cls-4,.cls-5,.cls-6,.cls-7,.cls-8,.cls-9{fill:none;stroke-linecap:round;stroke-linejoin:round;stroke-width:9px;}.cls-4{stroke:url(#Dégradé_sans_nom_62);}.cls-5{stroke:url(#Dégradé_sans_nom_62-2);}.cls-6{stroke:url(#Dégradé_sans_nom_62-3);}.cls-7{stroke:url(#Dégradé_sans_nom_62-4);}.cls-8{stroke:url(#Dégradé_sans_nom_62-5);}.cls-9{stroke:url(#Dégradé_sans_nom_62-6);}.cls-10{fill:#f4f4f4;}</style><linearGradient id="Dégradé_sans_nom_2" x1="31.34" y1="157.19" x2="119.26" y2="157.19" gradientUnits="userSpaceOnUse"><stop offset="0" stop-color="#00a096"/><stop offset="1" stop-color="#185a4c"/></linearGradient><linearGradient id="Dégradé_sans_nom_2-2" x1="119.26" y1="157.19" x2="207.18" y2="157.19" xlink:href="#Dégradé_sans_nom_2"/><linearGradient id="Dégradé_sans_nom_2-3" x1="31.34" y1="83.87" x2="207.18" y2="83.87" xlink:href="#Dégradé_sans_nom_2"/><linearGradient id="Dégradé_sans_nom_62" x1="114.76" y1="47.9" x2="123.76" y2="47.9" gradientUnits="userSpaceOnUse"><stop offset="0" stop-color="#ffd550"/><stop offset="1" stop-color="#ffb900"/></linearGradient><linearGradient id="Dégradé_sans_nom_62-2" x1="101.56" y1="17.1" x2="136.96" y2="17.1" xlink:href="#Dégradé_sans_nom_62"/><linearGradient id="Dégradé_sans_nom_62-3" x1="-1043.12" y1="503.22" x2="-1034.12" y2="503.22" gradientTransform="matrix(0, 1.15, -0.87, -0.5, 631.45, 1629.71)" xlink:href="#Dégradé_sans_nom_62"/><linearGradient id="Dégradé_sans_nom_62-4" x1="-1054.48" y1="472.42" x2="-1022.76" y2="472.42" gradientTransform="matrix(0, 1.15, -0.87, -0.5, 631.45, 1629.71)" xlink:href="#Dégradé_sans_nom_62"/><linearGradient id="Dégradé_sans_nom_62-5" x1="357.83" y1="1207.44" x2="366.83" y2="1207.44" gradientTransform="matrix(0, -1.15, 0.87, -0.5, -1002.8, 1200.9)" xlink:href="#Dégradé_sans_nom_62"/><linearGradient id="Dégradé_sans_nom_62-6" x1="346.47" y1="1176.64" x2="378.19" y2="1176.64" gradientTransform="matrix(0, -1.15, 0.87, -0.5, -1002.8, 1200.9)" xlink:href="#Dégradé_sans_nom_62"/></defs><g id="Calque_2" data-name="Calque 2"><g id="Calque_2-2" data-name="Calque 2"><path class="cls-1" d="M31.34,83.87v90.85A11.75,11.75,0,0,0,37.28,185l76,43.91a11.89,11.89,0,0,0,5.94,1.59V139.65Z"/><path class="cls-2" d="M207.18,83.87v90.85A11.75,11.75,0,0,1,201.24,185l-76,43.91a11.89,11.89,0,0,1-5.94,1.59V139.65Z"/><path class="cls-3" d="M37.28,73.59l76-43.9a11.89,11.89,0,0,1,11.88,0l76,43.9a11.88,11.88,0,0,1,0,20.57l-76,43.9a11.89,11.89,0,0,1-11.88,0l-76-43.9A11.87,11.87,0,0,1,37.28,73.59Z"/><line class="cls-4" x1="119.26" y1="10.5" x2="119.26" y2="85.3"/><polyline class="cls-5" points="132.46 23.7 119.26 10.5 106.06 23.7"/><line class="cls-6" x1="228.04" y1="197.5" x2="163.26" y2="160.1"/><polyline class="cls-7" points="216.61 204.01 228.04 197.5 216.61 177.78"/><line class="cls-8" x1="10.48" y1="197.5" x2="75.26" y2="160.1"/><polyline class="cls-9" points="21.91 177.78 10.48 197.5 21.91 204.01"/><path class="cls-10" d="M119.26,6a4.38,4.38,0,0,1,.88.09,2.85,2.85,0,0,1,.39.11c.15,0,.3.08.45.14l.44.23a2.17,2.17,0,0,1,.33.19,4.12,4.12,0,0,1,.69.56l13.2,13.2a4.5,4.5,0,1,1-6.36,6.36l-5.52-5.52V29a11.93,11.93,0,0,1,1.44.7l76,43.9a11.78,11.78,0,0,1,5.94,10.29v90.84a12,12,0,0,1-1.08,4.92l9.59,5.53-3-5.13a4.5,4.5,0,0,1,7.79-4.52l11.43,19.72a1.47,1.47,0,0,1,.06.14,3.36,3.36,0,0,1,.2.43c.05.12.1.25.14.38a3.54,3.54,0,0,1,.11.44c0,.14.05.28.06.42a3.39,3.39,0,0,1,0,.45c0,.14,0,.28,0,.42s0,.3-.08.46,0,.19-.05.29,0,.08,0,.12a3.47,3.47,0,0,1-.16.41c-.06.14-.12.29-.19.42s0,.09-.05.13-.22.33-.33.49h0a4.33,4.33,0,0,1-.55.58l-.13.12a4.71,4.71,0,0,1-.65.45h0l-11.41,6.5a4.42,4.42,0,0,1-2.23.6,4.5,4.5,0,0,1-2.23-8.41l4.62-2.64-19.68-11.36-74.12,42.8a11.89,11.89,0,0,1-11.88,0L39.2,186.11,19.52,197.47l4.62,2.64a4.5,4.5,0,0,1-2.23,8.41,4.42,4.42,0,0,1-2.23-.6l-11.41-6.5h0A4.71,4.71,0,0,1,7.6,201l-.13-.12a4.33,4.33,0,0,1-.55-.58h0c-.11-.16-.23-.32-.33-.49s0-.08,0-.13a3.17,3.17,0,0,1-.19-.42,3.47,3.47,0,0,1-.16-.41s0-.08,0-.12,0-.2,0-.29-.06-.31-.08-.46,0-.28,0-.42a3.39,3.39,0,0,1,0-.45c0-.14,0-.28.06-.42a3.54,3.54,0,0,1,.11-.44c0-.13.09-.26.14-.38s.12-.29.19-.43,0-.09.07-.14L18,175.52A4.5,4.5,0,0,1,25.81,180l-3,5.13,9.59-5.53a12,12,0,0,1-1.08-4.92V83.87a11.77,11.77,0,0,1,5.94-10.28l76-43.9a11.93,11.93,0,0,1,1.44-.7V21.36l-5.52,5.52a4.5,4.5,0,0,1-6.36-6.36l13.2-13.2a4.5,4.5,0,0,1,.68-.56,2.9,2.9,0,0,1,.34-.19l.44-.23c.15-.06.3-.09.45-.14a2.5,2.5,0,0,1,.39-.11,4.31,4.31,0,0,1,.88-.09m0-6a10.79,10.79,0,0,0-2.05.2,8.42,8.42,0,0,0-.95.26,7.4,7.4,0,0,0-1,.34,8.5,8.5,0,0,0-1,.49,7.33,7.33,0,0,0-.82.48,9.63,9.63,0,0,0-1.6,1.31L98.63,16.27a10.5,10.5,0,0,0,0,14.85l.07.08L34.28,68.4a17.67,17.67,0,0,0-8.94,15.47v84a10.48,10.48,0,0,0-12.51,4.65L1.4,192.23c-.13.23-.23.43-.31.59s-.24.53-.32.72a8.74,8.74,0,0,0-.32.91,7.42,7.42,0,0,0-.25,1,8.44,8.44,0,0,0-.15,1,9.1,9.1,0,0,0,0,1.05v0a9,9,0,0,0,0,.93c0,.38.09.7.13.93s.09.51.17.84.14.43.19.58.18.48.24.62l0,.06c.07.16.17.4.31.68a5.15,5.15,0,0,0,.29.57,9,9,0,0,0,.56.86l.05.09.2.25a10.3,10.3,0,0,0,1.25,1.33l.3.27a10,10,0,0,0,1,.77l.15.13.4.21,11.36,6.48A10.5,10.5,0,0,0,32,201.24a10.41,10.41,0,0,0-1.49-3.2l8.65-5,71.12,41.06a17.85,17.85,0,0,0,17.88,0L199.32,193l8.65,5a10.51,10.51,0,0,0,8.64,16.48,10.53,10.53,0,0,0,5.2-1.38l11.38-6.49h0l0,0,.41-.24.09-.07a9.61,9.61,0,0,0,1-.76l.32-.27a10.87,10.87,0,0,0,1.24-1.32l.19-.25.06-.09c.2-.29.39-.58.56-.87a5.15,5.15,0,0,0,.29-.57,7.29,7.29,0,0,0,.3-.68l0-.06c.06-.14.15-.35.24-.62s.12-.35.19-.59.13-.61.17-.83.1-.56.13-.93a9,9,0,0,0,0-.93h0v0a9.35,9.35,0,0,0-.05-1.06,8.89,8.89,0,0,0-.14-.92,8.09,8.09,0,0,0-.26-1.06,6.78,6.78,0,0,0-.32-.89c-.08-.21-.19-.46-.33-.74a4.71,4.71,0,0,0-.3-.59l-11.43-19.72a10.53,10.53,0,0,0-9.09-5.23,10.41,10.41,0,0,0-3.42.58v-84a17.69,17.69,0,0,0-8.94-15.48L139.81,31.2l.07-.08a10.49,10.49,0,0,0,0-14.85L126.69,3.07a10.57,10.57,0,0,0-1.6-1.3,6.89,6.89,0,0,0-.82-.48,10.12,10.12,0,0,0-1-.49,8.31,8.31,0,0,0-1-.35,8.87,8.87,0,0,0-.94-.25,10.79,10.79,0,0,0-2-.2Z"/></g></g></svg>