<svg xmlns="http://www.w3.org/2000/svg" xmlns:xlink="http://www.w3.org/1999/xlink" viewBox="0 0 180 236"><defs><style>.cls-1{fill:url(#Dégradé_sans_nom_11);}.cls-2{fill:url(#Dégradé_sans_nom_11-2);}.cls-3{fill:url(#Dégradé_sans_nom_11-4);}.cls-4{fill:url(#Dégradé_sans_nom_11-6);}.cls-5{fill:url(#Dégradé_sans_nom_2);}.cls-6{fill:url(#Dégradé_sans_nom_13);}.cls-7{fill:url(#Dégradé_sans_nom_2-2);}.cls-8{fill:url(#Dégradé_sans_nom_13-2);}.cls-9{fill:url(#Dégradé_sans_nom_2-3);}.cls-10{fill:url(#Dégradé_sans_nom_2-4);}.cls-11{fill:url(#Dégradé_sans_nom_2-5);}.cls-12,.cls-13{opacity:0.2;}.cls-12{fill:url(#Dégradé_sans_nom_44);}.cls-13{fill:url(#Dégradé_sans_nom_44-2);}.cls-14{fill:#f4f4f4;}</style><linearGradient id="Dégradé_sans_nom_11" x1="-426" y1="27.52" x2="-426" y2="169.5" gradientTransform="matrix(-1, 0, 0, 1, -336, 0)" gradientUnits="userSpaceOnUse"><stop offset="0" stop-color="#ffd550"/><stop offset="1" stop-color="#ffb900"/></linearGradient><linearGradient id="Dégradé_sans_nom_11-2" x1="126" y1="1411.52" x2="126" y2="1553.5" gradientTransform="matrix(1, 0, 0, -1, -36, 1620)" xlink:href="#Dégradé_sans_nom_11"/><linearGradient id="Dégradé_sans_nom_11-4" x1="-426" y1="113.5" x2="-426" y2="-2.93" xlink:href="#Dégradé_sans_nom_11"/><linearGradient id="Dégradé_sans_nom_11-6" x1="126" y1="1497.5" x2="126" y2="1381.07" gradientTransform="matrix(1, 0, 0, -1, -36, 1620)" xlink:href="#Dégradé_sans_nom_11"/><linearGradient id="Dégradé_sans_nom_2" x1="-548.02" y1="1493.74" x2="-548.02" y2="1526.08" gradientTransform="translate(638.02 -1487.74)" gradientUnits="userSpaceOnUse"><stop offset="0" stop-color="#00a096"/><stop offset="1" stop-color="#185a4c"/></linearGradient><linearGradient id="Dégradé_sans_nom_13" x1="-548.02" y1="1500.79" x2="-548.02" y2="1511.94" gradientTransform="translate(638.02 -1487.74)" gradientUnits="userSpaceOnUse"><stop offset="0" stop-color="#185a4c"/><stop offset="1" stop-color="#00a096"/></linearGradient><linearGradient id="Dégradé_sans_nom_2-2" x1="3.98" y1="92.36" x2="3.98" y2="124.7" gradientTransform="translate(86.02 116.12)" xlink:href="#Dégradé_sans_nom_2"/><linearGradient id="Dégradé_sans_nom_13-2" x1="3.98" y1="99.41" x2="3.98" y2="110.56" gradientTransform="translate(86.02 116.12)" xlink:href="#Dégradé_sans_nom_13"/><linearGradient id="Dégradé_sans_nom_2-3" x1="89.89" y1="113.5" x2="89.89" y2="30.1" gradientTransform="matrix(1, 0, 0, 1, 0, 0)" xlink:href="#Dégradé_sans_nom_2"/><linearGradient id="Dégradé_sans_nom_2-4" x1="93.89" y1="178.67" x2="93.89" y2="94.27" gradientTransform="matrix(1, 0, 0, 1, 0, 0)" xlink:href="#Dégradé_sans_nom_2"/><linearGradient id="Dégradé_sans_nom_2-5" x1="92.75" y1="199.98" x2="92.75" y2="149.74" gradientTransform="matrix(1, 0, 0, 1, 0, 0)" xlink:href="#Dégradé_sans_nom_2"/><linearGradient id="Dégradé_sans_nom_44" x1="-387.02" y1="97.47" x2="-504.18" y2="-19.69" gradientTransform="matrix(-1, 0, 0, 1, -336, 0)" gradientUnits="userSpaceOnUse"><stop offset="0" stop-color="#fff"/><stop offset="1" stop-color="#fff" stop-opacity="0"/></linearGradient><linearGradient id="Dégradé_sans_nom_44-2" x1="87.02" y1="1403.51" x2="204.18" y2="1520.66" gradientTransform="matrix(1, 0, 0, -1, -36, 1620)" xlink:href="#Dégradé_sans_nom_44"/></defs><g id="Calque_2" data-name="Calque 2"><g id="Calque_2-2" data-name="Calque 2"><path class="cls-1" d="M154,27.52V58h0a64,64,0,0,1-64,64h0A64,64,0,0,1,26,58h0V27.52Z"/><path class="cls-2" d="M26,208.48V178h0a64,64,0,0,1,64-64h0a64,64,0,0,1,64,64h0v30.48Z"/><path class="cls-1" d="M154,27.52V58h0a64,64,0,0,1-64,64h0A64,64,0,0,1,26,58h0V27.52Z"/><path class="cls-3" d="M90,113.5A55.57,55.57,0,0,1,34.5,58V36h111V58A55.57,55.57,0,0,1,90,113.5Z"/><path class="cls-2" d="M26,208.48V178h0a64,64,0,0,1,64-64h0a64,64,0,0,1,64,64h0v30.48Z"/><path class="cls-4" d="M34.5,200V178a55.5,55.5,0,0,1,111,0v22Z"/><path class="cls-5" d="M17.77,6H162.23A11.77,11.77,0,0,1,174,17.77v9.75a0,0,0,0,1,0,0H6a0,0,0,0,1,0,0V17.77A11.77,11.77,0,0,1,17.77,6Z" transform="translate(180 33.52) rotate(180)"/><rect class="cls-6" x="37.5" y="13.05" width="105" height="7.42" rx="3.71" transform="translate(180 33.52) rotate(180)"/><path class="cls-7" d="M17.77,208.48H162.23A11.77,11.77,0,0,1,174,220.25V230a0,0,0,0,1,0,0H6a0,0,0,0,1,0,0v-9.75A11.77,11.77,0,0,1,17.77,208.48Z"/><rect class="cls-8" x="37.5" y="215.53" width="105" height="7.42" rx="3.71"/><path class="cls-9" d="M90,113.5a55.57,55.57,0,0,0,55.28-50.79C112.59,62.71,114,74,88,74S70,58,34.5,58A55.57,55.57,0,0,0,90,113.5Z"/><path class="cls-10" d="M96.48,122.89A57.81,57.81,0,0,0,90,122.5a55.87,55.87,0,0,0-8,.59c-.43,35.7-8.2,49.5-8.2,49.5L114,178.67C91.83,156.5,94.71,131.29,96.48,122.89Z"/><path class="cls-11" d="M40,200l6.6-8.24a8.39,8.39,0,0,1,3.48-2.55l9.42-3.69a8.1,8.1,0,0,0,2.78-1.79l10.89-10.59c.19-.18.4-.36.61-.53L79,168.38a8.33,8.33,0,0,1,6.82-1.67l9.8,1.91a8.42,8.42,0,0,1,3.93,1.94l6.43,5.69a8.35,8.35,0,0,0,4.61,2l9.3,1A8.36,8.36,0,0,1,127.2,186h0a8.35,8.35,0,0,0,4.46,5.84l4,2a6.3,6.3,0,0,1,.72.4L145.5,200"/><path class="cls-12" d="M90,113.5A55.57,55.57,0,0,1,34.5,58V36h111V58A55.57,55.57,0,0,1,90,113.5Z"/><path class="cls-13" d="M34.5,200V178a55.5,55.5,0,0,1,111,0v22Z"/><path class="cls-14" d="M174,6v9.75a11.77,11.77,0,0,1-11.77,11.77H154V58h0a64,64,0,0,1-41.7,60A64,64,0,0,1,154,178v30.48h8.23A11.77,11.77,0,0,1,174,220.25V230H6v-9.75a11.77,11.77,0,0,1,11.77-11.77H26V178h0a64,64,0,0,1,41.7-60A64,64,0,0,1,26,58h0V27.52H17.77A11.77,11.77,0,0,1,6,15.75V6H174m6-6H0V15.75A17.79,17.79,0,0,0,17.77,33.52H20V58a70.05,70.05,0,0,0,33.92,60A70.05,70.05,0,0,0,20,178v24.48H17.77A17.79,17.79,0,0,0,0,220.25V236H180V220.25a17.79,17.79,0,0,0-17.77-17.77H160V178a70.05,70.05,0,0,0-33.92-60A70.05,70.05,0,0,0,160,58V33.52h2.23A17.79,17.79,0,0,0,180,15.75V0Z"/></g></g></svg>