<svg version="1.2" baseProfile="tiny-ps" xmlns="http://www.w3.org/2000/svg" viewBox="0 0 18 4" width="18" height="4">
	<title>Nouveau projet</title>
	<style>
		tspan { white-space:pre }
		.shp0 { fill: #ffffff } 
	</style>
	<path id="Calque 1" class="shp0" d="M17.9 2.1L13.9 0.49C13.78 0.45 13.66 0.44 13.53 0.47C13.4 0.49 13.33 0.54 13.33 0.6L13.33 1.63L0.33 1.63C0.24 1.63 0.16 1.65 0.09 1.67C0.03 1.7 0 1.74 0 1.78L0 2.66C0 2.71 0.03 2.74 0.09 2.77C0.16 2.8 0.24 2.81 0.33 2.81L13.33 2.81L13.33 3.84C13.33 3.9 13.4 3.95 13.53 3.98C13.66 4 13.78 3.99 13.9 3.95L17.9 2.32C17.97 2.29 18 2.25 18 2.21C18 2.17 17.97 2.13 17.9 2.1L17.9 2.1Z" />
</svg>